<mxfile host="app.diagrams.net" modified="2023-04-10T00:46:21.051Z" agent="Mozilla/5.0 (Windows NT 10.0; Win64; x64) AppleWebKit/537.36 (KHTML, like Gecko) Chrome/111.0.0.0 Safari/537.36" etag="8mIxXMIKvGmNFmnBUi5L" version="21.1.4" type="device">
  <diagram id="6a731a19-8d31-9384-78a2-239565b7b9f0" name="Page-1">
    <mxGraphModel dx="1434" dy="788" grid="1" gridSize="10" guides="1" tooltips="1" connect="1" arrows="1" fold="1" page="1" pageScale="1" pageWidth="1169" pageHeight="827" background="none" math="0" shadow="0">
      <root>
        <mxCell id="0" />
        <mxCell id="1" parent="0" />
        <mxCell id="Qnt6TcZh-FuW5jhdGk-x-381" value="" style="strokeColor=#FFFFFF;fillColor=#BAC8D3;fontSize=18;strokeWidth=2;fontFamily=Helvetica;html=1;opacity=90;rounded=0;" parent="1" vertex="1">
          <mxGeometry x="838.3400000000001" y="2940" width="646.6666666666666" height="100" as="geometry" />
        </mxCell>
        <mxCell id="Qnt6TcZh-FuW5jhdGk-x-386" value="" style="strokeColor=#FFFFFF;fillColor=#BAC8D3;fontSize=18;strokeWidth=2;fontFamily=Helvetica;html=1;opacity=60;rounded=0;" parent="1" vertex="1">
          <mxGeometry x="837.0000000000001" y="2840" width="646.6666666666666" height="100" as="geometry" />
        </mxCell>
        <mxCell id="Qnt6TcZh-FuW5jhdGk-x-382" value="" style="strokeColor=#FFFFFF;fillColor=#BAC8D3;fontSize=18;strokeWidth=2;fontFamily=Helvetica;html=1;opacity=90;rounded=0;" parent="1" vertex="1">
          <mxGeometry x="191.17" y="2940" width="646.6666666666666" height="100" as="geometry" />
        </mxCell>
        <mxCell id="Qnt6TcZh-FuW5jhdGk-x-383" value="" style="strokeColor=#FFFFFF;fillColor=#BAC8D3;fontSize=18;strokeWidth=2;fontFamily=Helvetica;html=1;opacity=60;rounded=0;" parent="1" vertex="1">
          <mxGeometry x="190.33" y="2840" width="646.6666666666666" height="100" as="geometry" />
        </mxCell>
        <mxCell id="Qnt6TcZh-FuW5jhdGk-x-362" value="" style="strokeColor=#FFFFFF;fillColor=#BAC8D3;fontSize=18;strokeWidth=2;fontFamily=Helvetica;html=1;opacity=90;rounded=0;" parent="1" vertex="1">
          <mxGeometry x="840.0200000000001" y="2740" width="646.6666666666666" height="100" as="geometry" />
        </mxCell>
        <mxCell id="Qnt6TcZh-FuW5jhdGk-x-363" value="" style="strokeColor=#FFFFFF;fillColor=#BAC8D3;fontSize=18;strokeWidth=2;fontFamily=Helvetica;html=1;opacity=90;rounded=0;" parent="1" vertex="1">
          <mxGeometry x="192.85" y="2740" width="646.6666666666666" height="100" as="geometry" />
        </mxCell>
        <mxCell id="Qnt6TcZh-FuW5jhdGk-x-364" value="" style="strokeColor=#FFFFFF;fillColor=#BAC8D3;fontSize=18;strokeWidth=2;fontFamily=Helvetica;html=1;opacity=60;rounded=0;" parent="1" vertex="1">
          <mxGeometry x="192.01000000000002" y="2640" width="646.6666666666666" height="100" as="geometry" />
        </mxCell>
        <mxCell id="Qnt6TcZh-FuW5jhdGk-x-365" value="" style="strokeColor=#FFFFFF;fillColor=#BAC8D3;fontSize=18;strokeWidth=2;fontFamily=Helvetica;html=1;opacity=90;rounded=0;" parent="1" vertex="1">
          <mxGeometry x="1486.69" y="2740" width="646.6666666666666" height="100" as="geometry" />
        </mxCell>
        <mxCell id="Qnt6TcZh-FuW5jhdGk-x-367" value="" style="strokeColor=#FFFFFF;fillColor=#BAC8D3;fontSize=18;strokeWidth=2;fontFamily=Helvetica;html=1;opacity=60;rounded=0;" parent="1" vertex="1">
          <mxGeometry x="838.6800000000001" y="2640" width="646.6666666666666" height="100" as="geometry" />
        </mxCell>
        <mxCell id="Qnt6TcZh-FuW5jhdGk-x-368" value="" style="strokeColor=#FFFFFF;fillColor=#BAC8D3;fontSize=18;strokeWidth=2;fontFamily=Helvetica;html=1;opacity=60;rounded=0;" parent="1" vertex="1">
          <mxGeometry x="1485.9299999999998" y="2640" width="646.6666666666666" height="100" as="geometry" />
        </mxCell>
        <mxCell id="Qnt6TcZh-FuW5jhdGk-x-345" value="" style="strokeColor=#FFFFFF;fillColor=#BAC8D3;fontSize=18;strokeWidth=2;fontFamily=Helvetica;html=1;opacity=90;rounded=0;" parent="1" vertex="1">
          <mxGeometry x="840.0200000000001" y="2540" width="646.6666666666666" height="100" as="geometry" />
        </mxCell>
        <mxCell id="Qnt6TcZh-FuW5jhdGk-x-330" value="" style="strokeColor=#FFFFFF;fillColor=#BAC8D3;fontSize=18;strokeWidth=2;fontFamily=Helvetica;html=1;opacity=90;rounded=0;" parent="1" vertex="1">
          <mxGeometry x="192.01" y="2340" width="646.6666666666666" height="100" as="geometry" />
        </mxCell>
        <mxCell id="Qnt6TcZh-FuW5jhdGk-x-344" value="" style="strokeColor=#FFFFFF;fillColor=#BAC8D3;fontSize=18;strokeWidth=2;fontFamily=Helvetica;html=1;opacity=90;rounded=0;" parent="1" vertex="1">
          <mxGeometry x="192.85" y="2540" width="646.6666666666666" height="100" as="geometry" />
        </mxCell>
        <mxCell id="Qnt6TcZh-FuW5jhdGk-x-348" value="" style="strokeColor=#FFFFFF;fillColor=#BAC8D3;fontSize=18;strokeWidth=2;fontFamily=Helvetica;html=1;opacity=60;rounded=0;" parent="1" vertex="1">
          <mxGeometry x="192.01000000000002" y="2440" width="646.6666666666666" height="100" as="geometry" />
        </mxCell>
        <mxCell id="Qnt6TcZh-FuW5jhdGk-x-335" value="" style="strokeColor=#FFFFFF;fillColor=#BAC8D3;fontSize=18;strokeWidth=2;fontFamily=Helvetica;html=1;opacity=60;rounded=0;" parent="1" vertex="1">
          <mxGeometry x="837.84" y="2240" width="646.6666666666666" height="100" as="geometry" />
        </mxCell>
        <mxCell id="Qnt6TcZh-FuW5jhdGk-x-334" value="" style="strokeColor=#FFFFFF;fillColor=#BAC8D3;fontSize=18;strokeWidth=2;fontFamily=Helvetica;html=1;opacity=60;rounded=0;" parent="1" vertex="1">
          <mxGeometry x="191.17000000000002" y="2240" width="646.6666666666666" height="100" as="geometry" />
        </mxCell>
        <mxCell id="57" value="사용자" style="strokeColor=#BAC8D3;fillColor=#23445D;fontSize=24;strokeWidth=2;horizontal=0;fontFamily=Helvetica;html=1;fontColor=#FFFFFF;fontStyle=0;rounded=0;" parent="1" vertex="1">
          <mxGeometry x="100" y="440" width="50" height="1200" as="geometry" />
        </mxCell>
        <mxCell id="Qnt6TcZh-FuW5jhdGk-x-266" value="" style="edgeStyle=orthogonalEdgeStyle;rounded=0;orthogonalLoop=1;jettySize=auto;html=1;" parent="1" source="58" target="57" edge="1">
          <mxGeometry relative="1" as="geometry" />
        </mxCell>
        <mxCell id="58" value="Lane 1.1" style="strokeColor=#BAC8D3;fillColor=#5d7f99;fontSize=19;strokeWidth=2;horizontal=0;fontFamily=Helvetica;html=1;labelBackgroundColor=none;fontColor=#FFFFFF;rounded=0;" parent="1" vertex="1">
          <mxGeometry x="150" y="438.67" width="40" height="100" as="geometry" />
        </mxCell>
        <mxCell id="59" value="" style="strokeColor=#BAC8D3;fillColor=#5d7f99;fontSize=19;strokeWidth=2;fontFamily=Helvetica;html=1;labelBackgroundColor=none;fontColor=#FFFFFF;rounded=0;" parent="1" vertex="1">
          <mxGeometry x="100" y="360" width="90" height="80" as="geometry" />
        </mxCell>
        <mxCell id="60" value="Lane 1.2" style="strokeColor=#BAC8D3;fillColor=#5d7f99;fontSize=19;strokeWidth=2;horizontal=0;fontFamily=Helvetica;html=1;labelBackgroundColor=none;fontColor=#FFFFFF;rounded=0;" parent="1" vertex="1">
          <mxGeometry x="150" y="538.67" width="40" height="100" as="geometry" />
        </mxCell>
        <mxCell id="61" value="Lane 1.3" style="strokeColor=#BAC8D3;fillColor=#5d7f99;fontSize=19;strokeWidth=2;horizontal=0;fontFamily=Helvetica;html=1;labelBackgroundColor=none;fontColor=#FFFFFF;rounded=0;" parent="1" vertex="1">
          <mxGeometry x="150" y="638.67" width="40" height="100" as="geometry" />
        </mxCell>
        <mxCell id="62" value="Lane 3.2" style="strokeColor=#BAC8D3;fillColor=#5d7f99;fontSize=19;strokeWidth=2;horizontal=0;fontFamily=Helvetica;html=1;labelBackgroundColor=none;fontColor=#FFFFFF;rounded=0;" parent="1" vertex="1">
          <mxGeometry x="148.83000000000004" y="1740" width="40" height="100" as="geometry" />
        </mxCell>
        <mxCell id="63" value="Lane 3.1" style="strokeColor=#BAC8D3;fillColor=#5d7f99;fontSize=19;strokeWidth=2;horizontal=0;fontFamily=Helvetica;html=1;labelBackgroundColor=none;fontColor=#FFFFFF;rounded=0;" parent="1" vertex="1">
          <mxGeometry x="148.83000000000004" y="1640" width="40" height="100" as="geometry" />
        </mxCell>
        <mxCell id="65" value="Lane 3.4" style="strokeColor=#BAC8D3;fillColor=#5d7f99;fontSize=19;strokeWidth=2;horizontal=0;fontFamily=Helvetica;html=1;labelBackgroundColor=none;fontColor=#FFFFFF;rounded=0;" parent="1" vertex="1">
          <mxGeometry x="148.83000000000004" y="1940" width="40" height="100" as="geometry" />
        </mxCell>
        <mxCell id="66" value="Lane 3.3" style="strokeColor=#BAC8D3;fillColor=#5d7f99;fontSize=19;strokeWidth=2;horizontal=0;fontFamily=Helvetica;html=1;labelBackgroundColor=none;fontColor=#FFFFFF;rounded=0;" parent="1" vertex="1">
          <mxGeometry x="148.83000000000004" y="1840" width="40" height="100" as="geometry" />
        </mxCell>
        <mxCell id="67" value="관리자" style="strokeColor=#BAC8D3;fillColor=#23445D;fontSize=24;strokeWidth=2;horizontal=0;fontFamily=Helvetica;html=1;fontColor=#FFFFFF;fontStyle=0;rounded=0;" parent="1" vertex="1">
          <mxGeometry x="100.33" y="1640" width="50" height="1400" as="geometry" />
        </mxCell>
        <mxCell id="68" value="" style="strokeColor=#FFFFFF;fillColor=#BAC8D3;fontSize=18;strokeWidth=2;fontFamily=Helvetica;html=1;opacity=60;rounded=0;" parent="1" vertex="1">
          <mxGeometry x="190" y="440" width="646.6666666666666" height="100" as="geometry" />
        </mxCell>
        <mxCell id="69" value="" style="strokeColor=#FFFFFF;fillColor=#BAC8D3;fontSize=18;strokeWidth=2;fontFamily=Helvetica;html=1;opacity=90;rounded=0;" parent="1" vertex="1">
          <mxGeometry x="190" y="540" width="646.6666666666666" height="100" as="geometry" />
        </mxCell>
        <mxCell id="70" value="" style="strokeColor=#FFFFFF;fillColor=#BAC8D3;fontSize=18;strokeWidth=2;fontFamily=Helvetica;html=1;opacity=60;rounded=0;" parent="1" vertex="1">
          <mxGeometry x="190" y="640" width="646.6666666666666" height="100" as="geometry" />
        </mxCell>
        <mxCell id="71" value="" style="strokeColor=#FFFFFF;fillColor=#BAC8D3;fontSize=18;strokeWidth=2;fontFamily=Helvetica;html=1;opacity=90;rounded=0;" parent="1" vertex="1">
          <mxGeometry x="190" y="740" width="646.6666666666666" height="100" as="geometry" />
        </mxCell>
        <mxCell id="72" value="" style="strokeColor=#FFFFFF;fillColor=#BAC8D3;fontSize=18;strokeWidth=2;fontFamily=Helvetica;html=1;opacity=60;rounded=0;" parent="1" vertex="1">
          <mxGeometry x="190" y="840" width="646.6666666666666" height="100" as="geometry" />
        </mxCell>
        <mxCell id="73" value="" style="strokeColor=#FFFFFF;fillColor=#BAC8D3;fontSize=18;strokeWidth=2;fontFamily=Helvetica;html=1;opacity=90;rounded=0;" parent="1" vertex="1">
          <mxGeometry x="190" y="940" width="646.6666666666666" height="100" as="geometry" />
        </mxCell>
        <mxCell id="74" value="" style="strokeColor=#FFFFFF;fillColor=#BAC8D3;fontSize=18;strokeWidth=2;fontFamily=Helvetica;html=1;opacity=60;rounded=0;" parent="1" vertex="1">
          <mxGeometry x="190" y="1040" width="646.6666666666666" height="100" as="geometry" />
        </mxCell>
        <mxCell id="75" value="" style="strokeColor=#FFFFFF;fillColor=#BAC8D3;fontSize=18;strokeWidth=2;fontFamily=Helvetica;html=1;opacity=60;rounded=0;" parent="1" vertex="1">
          <mxGeometry x="836.6666666666666" y="440" width="647" height="100" as="geometry" />
        </mxCell>
        <mxCell id="76" value="" style="strokeColor=#FFFFFF;fillColor=#BAC8D3;fontSize=20;strokeWidth=2;fontFamily=Helvetica;html=1;opacity=90;rounded=0;" parent="1" vertex="1">
          <mxGeometry x="836.6666666666666" y="540" width="646.6666666666666" height="100" as="geometry" />
        </mxCell>
        <mxCell id="77" value="" style="strokeColor=#FFFFFF;fillColor=#BAC8D3;fontSize=20;strokeWidth=2;fontFamily=Helvetica;html=1;opacity=60;rounded=0;" parent="1" vertex="1">
          <mxGeometry x="836.6666666666666" y="640" width="646.6666666666666" height="100" as="geometry" />
        </mxCell>
        <mxCell id="78" value="" style="strokeColor=#FFFFFF;fillColor=#BAC8D3;fontSize=20;strokeWidth=2;fontFamily=Helvetica;html=1;opacity=90;rounded=0;" parent="1" vertex="1">
          <mxGeometry x="836.6666666666666" y="740" width="646.6666666666666" height="100" as="geometry" />
        </mxCell>
        <mxCell id="79" value="" style="strokeColor=#FFFFFF;fillColor=#BAC8D3;fontSize=20;strokeWidth=2;fontFamily=Helvetica;html=1;opacity=60;rounded=0;" parent="1" vertex="1">
          <mxGeometry x="836.9966666666667" y="840" width="646.6666666666666" height="100" as="geometry" />
        </mxCell>
        <mxCell id="80" value="" style="strokeColor=#FFFFFF;fillColor=#BAC8D3;fontSize=20;strokeWidth=2;fontFamily=Helvetica;html=1;opacity=90;rounded=0;" parent="1" vertex="1">
          <mxGeometry x="836.6666666666666" y="940" width="646.6666666666666" height="100" as="geometry" />
        </mxCell>
        <mxCell id="81" value="" style="strokeColor=#FFFFFF;fillColor=#BAC8D3;fontSize=20;strokeWidth=2;fontFamily=Helvetica;html=1;opacity=60;fontStyle=4;rounded=0;" parent="1" vertex="1">
          <mxGeometry x="836.6666666666666" y="1040" width="646.6666666666666" height="100" as="geometry" />
        </mxCell>
        <mxCell id="82" value="" style="strokeColor=#FFFFFF;fillColor=#BAC8D3;fontSize=18;strokeWidth=2;fontFamily=Helvetica;html=1;opacity=60;rounded=0;" parent="1" vertex="1">
          <mxGeometry x="1483.3333333333333" y="440" width="647" height="100" as="geometry" />
        </mxCell>
        <mxCell id="83" value="" style="strokeColor=#FFFFFF;fillColor=#BAC8D3;fontSize=18;strokeWidth=2;fontFamily=Helvetica;html=1;opacity=90;rounded=0;" parent="1" vertex="1">
          <mxGeometry x="1483.3333333333333" y="540" width="646.6666666666666" height="100" as="geometry" />
        </mxCell>
        <mxCell id="84" value="" style="strokeColor=#FFFFFF;fillColor=#BAC8D3;fontSize=18;strokeWidth=2;fontFamily=Helvetica;html=1;opacity=60;rounded=0;" parent="1" vertex="1">
          <mxGeometry x="1483.3333333333333" y="640" width="646.6666666666666" height="100" as="geometry" />
        </mxCell>
        <mxCell id="85" value="" style="strokeColor=#FFFFFF;fillColor=#BAC8D3;fontSize=18;strokeWidth=2;fontFamily=Helvetica;html=1;opacity=90;rounded=0;" parent="1" vertex="1">
          <mxGeometry x="1483.3333333333333" y="740" width="646.6666666666666" height="100" as="geometry" />
        </mxCell>
        <mxCell id="86" value="" style="strokeColor=#FFFFFF;fillColor=#BAC8D3;fontSize=18;strokeWidth=2;fontFamily=Helvetica;html=1;opacity=60;rounded=0;" parent="1" vertex="1">
          <mxGeometry x="1484.1733333333332" y="840" width="646.6666666666666" height="100" as="geometry" />
        </mxCell>
        <mxCell id="87" value="" style="strokeColor=#FFFFFF;fillColor=#BAC8D3;fontSize=18;strokeWidth=2;fontFamily=Helvetica;html=1;opacity=90;rounded=0;" parent="1" vertex="1">
          <mxGeometry x="1483.3333333333333" y="940" width="646.6666666666666" height="100" as="geometry" />
        </mxCell>
        <mxCell id="88" value="" style="strokeColor=#FFFFFF;fillColor=#BAC8D3;fontSize=18;strokeWidth=2;fontFamily=Helvetica;html=1;opacity=60;fontStyle=4;rounded=0;" parent="1" vertex="1">
          <mxGeometry x="1483.3333333333333" y="1040" width="646.6666666666666" height="100" as="geometry" />
        </mxCell>
        <mxCell id="120" value="" style="edgeStyle=elbowEdgeStyle;elbow=horizontal;strokeWidth=3;strokeColor=#0C343D;fontFamily=Helvetica;html=1;rounded=0;fontSize=20;" parent="1" edge="1">
          <mxGeometry x="-27.721020408163255" y="338.67" width="131.97278911564624" height="100" as="geometry">
            <mxPoint x="533.4966666666666" y="738.67" as="sourcePoint" />
            <mxPoint x="533.4966666666666" y="738.67" as="targetPoint" />
          </mxGeometry>
        </mxCell>
        <mxCell id="140" value="" style="group;rounded=0;" parent="1" vertex="1" connectable="0">
          <mxGeometry x="190" y="400" width="1946" height="40" as="geometry" />
        </mxCell>
        <mxCell id="141" value="Milestone 1" style="strokeColor=#BAC8D3;fillColor=#5d7f99;fontSize=19;strokeWidth=2;fontFamily=Helvetica;html=1;labelBackgroundColor=none;fontColor=#FFFFFF;rounded=0;" parent="140" vertex="1">
          <mxGeometry width="646.6656362699642" height="40" as="geometry" />
        </mxCell>
        <mxCell id="142" value="Milestone 2" style="strokeColor=#BAC8D3;fillColor=#5d7f99;fontSize=19;strokeWidth=2;fontFamily=Helvetica;html=1;labelBackgroundColor=none;fontColor=#FFFFFF;rounded=0;" parent="140" vertex="1">
          <mxGeometry x="646.6656362699642" width="646.6656362699642" height="40" as="geometry" />
        </mxCell>
        <mxCell id="143" value="Milestone 3" style="strokeColor=#BAC8D3;fillColor=#5d7f99;fontSize=19;strokeWidth=2;fontFamily=Helvetica;html=1;labelBackgroundColor=none;fontColor=#FFFFFF;rounded=0;" parent="140" vertex="1">
          <mxGeometry x="1293.3312725399282" width="646.6666666666666" height="40" as="geometry" />
        </mxCell>
        <mxCell id="56" value="LiClass Project&lt;br&gt;" style="strokeColor=#BAC8D3;fillColor=#23445D;fontSize=24;strokeWidth=2;fontFamily=Helvetica;html=1;fontColor=#FFFFFF;fontStyle=0;spacingBottom=8;spacingRight=0;spacingLeft=83;rounded=0;" parent="1" vertex="1">
          <mxGeometry x="100.33000000000001" y="320" width="2030" height="80" as="geometry" />
        </mxCell>
        <mxCell id="Qnt6TcZh-FuW5jhdGk-x-186" style="edgeStyle=orthogonalEdgeStyle;rounded=0;orthogonalLoop=1;jettySize=auto;html=1;entryX=0;entryY=0.5;entryDx=0;entryDy=0;" parent="1" source="VHRcU0e1Trz6SRrGmubA-178" target="Qnt6TcZh-FuW5jhdGk-x-183" edge="1">
          <mxGeometry relative="1" as="geometry" />
        </mxCell>
        <mxCell id="VHRcU0e1Trz6SRrGmubA-178" value="&lt;span style=&quot;font-size: 20px;&quot;&gt;회원&lt;/span&gt;" style="rounded=0;fillColor=#23445D;strokeColor=none;strokeWidth=2;fontFamily=Helvetica;html=1;gradientColor=none;fontColor=#FFFFFF;" parent="1" vertex="1">
          <mxGeometry x="216.39455782312928" y="465" width="127" height="50" as="geometry" />
        </mxCell>
        <mxCell id="5INvmE_OPfKQ1sfUVGNj-144" value="" style="strokeColor=#FFFFFF;fillColor=#BAC8D3;fontSize=18;strokeWidth=2;fontFamily=Helvetica;html=1;opacity=90;rounded=0;" parent="1" vertex="1">
          <mxGeometry x="190.32999999999998" y="1140" width="646.6666666666666" height="100" as="geometry" />
        </mxCell>
        <mxCell id="5INvmE_OPfKQ1sfUVGNj-145" value="" style="strokeColor=#FFFFFF;fillColor=#BAC8D3;fontSize=18;strokeWidth=2;fontFamily=Helvetica;html=1;opacity=90;rounded=0;" parent="1" vertex="1">
          <mxGeometry x="836.6700000000001" y="1141" width="646.6666666666666" height="100" as="geometry" />
        </mxCell>
        <mxCell id="5INvmE_OPfKQ1sfUVGNj-146" value="" style="strokeColor=#FFFFFF;fillColor=#BAC8D3;fontSize=18;strokeWidth=2;fontFamily=Helvetica;html=1;opacity=90;rounded=0;" parent="1" vertex="1">
          <mxGeometry x="1484.17" y="1140" width="646.6666666666666" height="100" as="geometry" />
        </mxCell>
        <mxCell id="Qnt6TcZh-FuW5jhdGk-x-144" value="" style="strokeColor=#FFFFFF;fillColor=#BAC8D3;fontSize=18;strokeWidth=2;fontFamily=Helvetica;html=1;opacity=60;rounded=0;" parent="1" vertex="1">
          <mxGeometry x="190" y="1241" width="646.6666666666666" height="100" as="geometry" />
        </mxCell>
        <mxCell id="Qnt6TcZh-FuW5jhdGk-x-145" value="" style="strokeColor=#FFFFFF;fillColor=#BAC8D3;fontSize=18;strokeWidth=2;fontFamily=Helvetica;html=1;opacity=60;rounded=0;" parent="1" vertex="1">
          <mxGeometry x="836.67" y="1241" width="646.6666666666666" height="100" as="geometry" />
        </mxCell>
        <mxCell id="Qnt6TcZh-FuW5jhdGk-x-146" value="" style="strokeColor=#FFFFFF;fillColor=#BAC8D3;fontSize=18;strokeWidth=2;fontFamily=Helvetica;html=1;opacity=60;rounded=0;" parent="1" vertex="1">
          <mxGeometry x="1483.92" y="1241" width="646.6666666666666" height="100" as="geometry" />
        </mxCell>
        <mxCell id="Qnt6TcZh-FuW5jhdGk-x-147" value="" style="strokeColor=#FFFFFF;fillColor=#BAC8D3;fontSize=18;strokeWidth=2;fontFamily=Helvetica;html=1;opacity=90;rounded=0;" parent="1" vertex="1">
          <mxGeometry x="190.32999999999998" y="1341" width="646.6666666666666" height="100" as="geometry" />
        </mxCell>
        <mxCell id="Qnt6TcZh-FuW5jhdGk-x-148" value="" style="strokeColor=#FFFFFF;fillColor=#BAC8D3;fontSize=18;strokeWidth=2;fontFamily=Helvetica;html=1;opacity=90;rounded=0;" parent="1" vertex="1">
          <mxGeometry x="837.5000000000001" y="1341" width="646.6666666666666" height="100" as="geometry" />
        </mxCell>
        <mxCell id="Qnt6TcZh-FuW5jhdGk-x-149" value="" style="strokeColor=#FFFFFF;fillColor=#BAC8D3;fontSize=18;strokeWidth=2;fontFamily=Helvetica;html=1;opacity=90;rounded=0;" parent="1" vertex="1">
          <mxGeometry x="1484.17" y="1341" width="646.6666666666666" height="100" as="geometry" />
        </mxCell>
        <mxCell id="Qnt6TcZh-FuW5jhdGk-x-172" value="" style="strokeColor=#FFFFFF;fillColor=#BAC8D3;fontSize=18;strokeWidth=2;fontFamily=Helvetica;html=1;opacity=90;rounded=0;" parent="1" vertex="1">
          <mxGeometry x="190" y="1541" width="646.6666666666666" height="100" as="geometry" />
        </mxCell>
        <mxCell id="Qnt6TcZh-FuW5jhdGk-x-173" value="" style="strokeColor=#FFFFFF;fillColor=#BAC8D3;fontSize=18;strokeWidth=2;fontFamily=Helvetica;html=1;opacity=90;rounded=0;" parent="1" vertex="1">
          <mxGeometry x="837.1700000000001" y="1541" width="646.6666666666666" height="100" as="geometry" />
        </mxCell>
        <mxCell id="Qnt6TcZh-FuW5jhdGk-x-174" value="" style="strokeColor=#FFFFFF;fillColor=#BAC8D3;fontSize=18;strokeWidth=2;fontFamily=Helvetica;html=1;opacity=90;rounded=0;" parent="1" vertex="1">
          <mxGeometry x="1483.8400000000001" y="1541" width="646.6666666666666" height="100" as="geometry" />
        </mxCell>
        <mxCell id="Qnt6TcZh-FuW5jhdGk-x-177" value="" style="strokeColor=#FFFFFF;fillColor=#BAC8D3;fontSize=18;strokeWidth=2;fontFamily=Helvetica;html=1;opacity=60;rounded=0;" parent="1" vertex="1">
          <mxGeometry x="190.33" y="1441" width="646.6666666666666" height="100" as="geometry" />
        </mxCell>
        <mxCell id="Qnt6TcZh-FuW5jhdGk-x-178" value="" style="strokeColor=#FFFFFF;fillColor=#BAC8D3;fontSize=18;strokeWidth=2;fontFamily=Helvetica;html=1;opacity=60;rounded=0;" parent="1" vertex="1">
          <mxGeometry x="837" y="1441" width="646.6666666666666" height="100" as="geometry" />
        </mxCell>
        <mxCell id="Qnt6TcZh-FuW5jhdGk-x-179" value="" style="strokeColor=#FFFFFF;fillColor=#BAC8D3;fontSize=18;strokeWidth=2;fontFamily=Helvetica;html=1;opacity=60;rounded=0;" parent="1" vertex="1">
          <mxGeometry x="1484.25" y="1441" width="646.6666666666666" height="100" as="geometry" />
        </mxCell>
        <mxCell id="Qnt6TcZh-FuW5jhdGk-x-195" style="edgeStyle=orthogonalEdgeStyle;rounded=0;orthogonalLoop=1;jettySize=auto;html=1;entryX=0;entryY=0.5;entryDx=0;entryDy=0;" parent="1" source="Qnt6TcZh-FuW5jhdGk-x-182" target="Qnt6TcZh-FuW5jhdGk-x-189" edge="1">
          <mxGeometry relative="1" as="geometry" />
        </mxCell>
        <mxCell id="Qnt6TcZh-FuW5jhdGk-x-196" style="edgeStyle=orthogonalEdgeStyle;rounded=0;orthogonalLoop=1;jettySize=auto;html=1;entryX=0;entryY=0.5;entryDx=0;entryDy=0;" parent="1" source="Qnt6TcZh-FuW5jhdGk-x-182" target="Qnt6TcZh-FuW5jhdGk-x-184" edge="1">
          <mxGeometry relative="1" as="geometry" />
        </mxCell>
        <mxCell id="Qnt6TcZh-FuW5jhdGk-x-182" value="&lt;span style=&quot;font-size: 20px;&quot;&gt;비회원&lt;/span&gt;" style="rounded=0;fillColor=#23445D;strokeColor=none;strokeWidth=2;fontFamily=Helvetica;html=1;gradientColor=none;fontColor=#FFFFFF;" parent="1" vertex="1">
          <mxGeometry x="216.39455782312928" y="563.67" width="127" height="50" as="geometry" />
        </mxCell>
        <mxCell id="Qnt6TcZh-FuW5jhdGk-x-199" style="edgeStyle=orthogonalEdgeStyle;rounded=0;orthogonalLoop=1;jettySize=auto;html=1;entryX=0;entryY=0.5;entryDx=0;entryDy=0;" parent="1" source="Qnt6TcZh-FuW5jhdGk-x-183" target="Qnt6TcZh-FuW5jhdGk-x-197" edge="1">
          <mxGeometry relative="1" as="geometry" />
        </mxCell>
        <mxCell id="Qnt6TcZh-FuW5jhdGk-x-210" style="edgeStyle=orthogonalEdgeStyle;rounded=0;orthogonalLoop=1;jettySize=auto;html=1;entryX=0;entryY=0.5;entryDx=0;entryDy=0;" parent="1" source="Qnt6TcZh-FuW5jhdGk-x-183" target="Qnt6TcZh-FuW5jhdGk-x-209" edge="1">
          <mxGeometry relative="1" as="geometry">
            <Array as="points">
              <mxPoint x="800" y="490" />
              <mxPoint x="800" y="690" />
            </Array>
          </mxGeometry>
        </mxCell>
        <mxCell id="Qnt6TcZh-FuW5jhdGk-x-217" style="edgeStyle=orthogonalEdgeStyle;rounded=0;orthogonalLoop=1;jettySize=auto;html=1;entryX=0;entryY=0.5;entryDx=0;entryDy=0;" parent="1" source="Qnt6TcZh-FuW5jhdGk-x-183" target="Qnt6TcZh-FuW5jhdGk-x-216" edge="1">
          <mxGeometry relative="1" as="geometry">
            <Array as="points">
              <mxPoint x="800" y="490" />
              <mxPoint x="800" y="790" />
            </Array>
          </mxGeometry>
        </mxCell>
        <mxCell id="Qnt6TcZh-FuW5jhdGk-x-222" style="edgeStyle=orthogonalEdgeStyle;rounded=0;orthogonalLoop=1;jettySize=auto;html=1;entryX=0;entryY=0.5;entryDx=0;entryDy=0;" parent="1" source="Qnt6TcZh-FuW5jhdGk-x-183" target="Qnt6TcZh-FuW5jhdGk-x-221" edge="1">
          <mxGeometry relative="1" as="geometry">
            <Array as="points">
              <mxPoint x="800" y="490" />
              <mxPoint x="800" y="990" />
            </Array>
          </mxGeometry>
        </mxCell>
        <mxCell id="Qnt6TcZh-FuW5jhdGk-x-224" style="edgeStyle=orthogonalEdgeStyle;rounded=0;orthogonalLoop=1;jettySize=auto;html=1;entryX=0;entryY=0.5;entryDx=0;entryDy=0;" parent="1" source="Qnt6TcZh-FuW5jhdGk-x-183" target="Qnt6TcZh-FuW5jhdGk-x-223" edge="1">
          <mxGeometry relative="1" as="geometry">
            <Array as="points">
              <mxPoint x="800" y="490" />
              <mxPoint x="800" y="1090" />
            </Array>
          </mxGeometry>
        </mxCell>
        <mxCell id="Qnt6TcZh-FuW5jhdGk-x-183" value="&lt;span style=&quot;font-size: 20px;&quot;&gt;로그인&lt;/span&gt;" style="rounded=0;fillColor=#23445D;strokeColor=none;strokeWidth=2;fontFamily=Helvetica;html=1;gradientColor=none;fontColor=#FFFFFF;" parent="1" vertex="1">
          <mxGeometry x="640.0045578231293" y="465" width="127" height="50" as="geometry" />
        </mxCell>
        <mxCell id="Qnt6TcZh-FuW5jhdGk-x-193" style="edgeStyle=orthogonalEdgeStyle;rounded=0;orthogonalLoop=1;jettySize=auto;html=1;entryX=0.5;entryY=1;entryDx=0;entryDy=0;" parent="1" source="Qnt6TcZh-FuW5jhdGk-x-184" target="Qnt6TcZh-FuW5jhdGk-x-183" edge="1">
          <mxGeometry relative="1" as="geometry" />
        </mxCell>
        <mxCell id="Qnt6TcZh-FuW5jhdGk-x-184" value="&lt;font style=&quot;font-size: 18px;&quot;&gt;일반 회원가입&lt;/font&gt;" style="rounded=0;fillColor=#23445D;strokeColor=none;strokeWidth=2;fontFamily=Helvetica;html=1;gradientColor=none;fontColor=#FFFFFF;" parent="1" vertex="1">
          <mxGeometry x="449.8345578231293" y="663.67" width="127" height="50" as="geometry" />
        </mxCell>
        <mxCell id="Qnt6TcZh-FuW5jhdGk-x-192" style="edgeStyle=orthogonalEdgeStyle;rounded=0;orthogonalLoop=1;jettySize=auto;html=1;entryX=0.5;entryY=1;entryDx=0;entryDy=0;" parent="1" source="Qnt6TcZh-FuW5jhdGk-x-189" target="Qnt6TcZh-FuW5jhdGk-x-183" edge="1">
          <mxGeometry relative="1" as="geometry" />
        </mxCell>
        <mxCell id="Qnt6TcZh-FuW5jhdGk-x-189" value="&lt;font style=&quot;font-size: 18px;&quot;&gt;SNS 회원가입&lt;/font&gt;" style="rounded=0;fillColor=#23445D;strokeColor=none;strokeWidth=2;fontFamily=Helvetica;html=1;gradientColor=none;fontColor=#FFFFFF;" parent="1" vertex="1">
          <mxGeometry x="449.8345578231293" y="563.67" width="127" height="50" as="geometry" />
        </mxCell>
        <mxCell id="Qnt6TcZh-FuW5jhdGk-x-202" style="edgeStyle=orthogonalEdgeStyle;rounded=0;orthogonalLoop=1;jettySize=auto;html=1;entryX=0;entryY=0.5;entryDx=0;entryDy=0;" parent="1" source="Qnt6TcZh-FuW5jhdGk-x-197" target="Qnt6TcZh-FuW5jhdGk-x-200" edge="1">
          <mxGeometry relative="1" as="geometry" />
        </mxCell>
        <mxCell id="Qnt6TcZh-FuW5jhdGk-x-197" value="&lt;font style=&quot;font-size: 18px;&quot;&gt;클래스 리스트&lt;/font&gt;" style="rounded=0;fillColor=#23445D;strokeColor=none;strokeWidth=2;fontFamily=Helvetica;html=1;gradientColor=none;fontColor=#FFFFFF;" parent="1" vertex="1">
          <mxGeometry x="890.0045578231293" y="465" width="127" height="50" as="geometry" />
        </mxCell>
        <mxCell id="Qnt6TcZh-FuW5jhdGk-x-204" style="edgeStyle=orthogonalEdgeStyle;rounded=0;orthogonalLoop=1;jettySize=auto;html=1;entryX=0;entryY=0.5;entryDx=0;entryDy=0;" parent="1" source="Qnt6TcZh-FuW5jhdGk-x-200" target="Qnt6TcZh-FuW5jhdGk-x-203" edge="1">
          <mxGeometry relative="1" as="geometry" />
        </mxCell>
        <mxCell id="Qnt6TcZh-FuW5jhdGk-x-200" value="&lt;font style=&quot;font-size: 16px;&quot;&gt;클래스 상세보기&lt;/font&gt;" style="rounded=0;fillColor=#23445D;strokeColor=none;strokeWidth=2;fontFamily=Helvetica;html=1;gradientColor=none;fontColor=#FFFFFF;" parent="1" vertex="1">
          <mxGeometry x="1110.0045578231293" y="465" width="127" height="50" as="geometry" />
        </mxCell>
        <mxCell id="Qnt6TcZh-FuW5jhdGk-x-208" style="edgeStyle=orthogonalEdgeStyle;rounded=0;orthogonalLoop=1;jettySize=auto;html=1;entryX=0;entryY=0.5;entryDx=0;entryDy=0;" parent="1" source="Qnt6TcZh-FuW5jhdGk-x-203" target="Qnt6TcZh-FuW5jhdGk-x-205" edge="1">
          <mxGeometry relative="1" as="geometry" />
        </mxCell>
        <mxCell id="Qnt6TcZh-FuW5jhdGk-x-203" value="&lt;font style=&quot;&quot;&gt;&lt;font style=&quot;font-size: 20px;&quot;&gt;예약하기&lt;/font&gt;&lt;br&gt;&lt;/font&gt;" style="rounded=0;fillColor=#23445D;strokeColor=none;strokeWidth=2;fontFamily=Helvetica;html=1;gradientColor=none;fontColor=#FFFFFF;" parent="1" vertex="1">
          <mxGeometry x="1320.0045578231293" y="465" width="127" height="50" as="geometry" />
        </mxCell>
        <mxCell id="bdJDR1JgVnyC1k3MvacX-145" style="edgeStyle=orthogonalEdgeStyle;rounded=0;orthogonalLoop=1;jettySize=auto;html=1;entryX=0;entryY=0.5;entryDx=0;entryDy=0;" edge="1" parent="1" source="Qnt6TcZh-FuW5jhdGk-x-205" target="bdJDR1JgVnyC1k3MvacX-143">
          <mxGeometry relative="1" as="geometry" />
        </mxCell>
        <mxCell id="Qnt6TcZh-FuW5jhdGk-x-205" value="&lt;font style=&quot;&quot;&gt;&lt;font style=&quot;font-size: 20px;&quot;&gt;결제하기&lt;/font&gt;&lt;br&gt;&lt;/font&gt;" style="rounded=0;fillColor=#23445D;strokeColor=none;strokeWidth=2;fontFamily=Helvetica;html=1;gradientColor=none;fontColor=#FFFFFF;" parent="1" vertex="1">
          <mxGeometry x="1520.0045578231293" y="465" width="127" height="50" as="geometry" />
        </mxCell>
        <mxCell id="Qnt6TcZh-FuW5jhdGk-x-212" style="edgeStyle=orthogonalEdgeStyle;rounded=0;orthogonalLoop=1;jettySize=auto;html=1;entryX=0;entryY=0.5;entryDx=0;entryDy=0;" parent="1" source="Qnt6TcZh-FuW5jhdGk-x-209" target="Qnt6TcZh-FuW5jhdGk-x-211" edge="1">
          <mxGeometry relative="1" as="geometry" />
        </mxCell>
        <mxCell id="Qnt6TcZh-FuW5jhdGk-x-209" value="&lt;font style=&quot;font-size: 20px;&quot;&gt;스튜디오&lt;/font&gt;" style="rounded=0;fillColor=#23445D;strokeColor=none;strokeWidth=2;fontFamily=Helvetica;html=1;gradientColor=none;fontColor=#FFFFFF;" parent="1" vertex="1">
          <mxGeometry x="890.0045578231293" y="665" width="127" height="50" as="geometry" />
        </mxCell>
        <mxCell id="Qnt6TcZh-FuW5jhdGk-x-215" style="edgeStyle=orthogonalEdgeStyle;rounded=0;orthogonalLoop=1;jettySize=auto;html=1;entryX=0.5;entryY=1;entryDx=0;entryDy=0;" parent="1" source="Qnt6TcZh-FuW5jhdGk-x-211" target="Qnt6TcZh-FuW5jhdGk-x-197" edge="1">
          <mxGeometry relative="1" as="geometry">
            <Array as="points">
              <mxPoint x="1174" y="600" />
              <mxPoint x="954" y="600" />
            </Array>
          </mxGeometry>
        </mxCell>
        <mxCell id="Qnt6TcZh-FuW5jhdGk-x-211" value="&lt;font style=&quot;&quot;&gt;&lt;font style=&quot;font-size: 18px;&quot;&gt;스튜디오&lt;br&gt;상세보기&lt;/font&gt;&lt;br&gt;&lt;/font&gt;" style="rounded=0;fillColor=#23445D;strokeColor=none;strokeWidth=2;fontFamily=Helvetica;html=1;gradientColor=none;fontColor=#FFFFFF;" parent="1" vertex="1">
          <mxGeometry x="1230.0045578231293" y="665" width="127" height="50" as="geometry" />
        </mxCell>
        <mxCell id="Qnt6TcZh-FuW5jhdGk-x-220" style="edgeStyle=orthogonalEdgeStyle;rounded=0;orthogonalLoop=1;jettySize=auto;html=1;entryX=0;entryY=0.5;entryDx=0;entryDy=0;" parent="1" source="Qnt6TcZh-FuW5jhdGk-x-216" target="Qnt6TcZh-FuW5jhdGk-x-219" edge="1">
          <mxGeometry relative="1" as="geometry" />
        </mxCell>
        <mxCell id="Qnt6TcZh-FuW5jhdGk-x-216" value="&lt;span style=&quot;font-size: 20px;&quot;&gt;Q&amp;amp;A 리스트&lt;/span&gt;" style="rounded=0;fillColor=#23445D;strokeColor=none;strokeWidth=2;fontFamily=Helvetica;html=1;gradientColor=none;fontColor=#FFFFFF;" parent="1" vertex="1">
          <mxGeometry x="890.0045578231293" y="765" width="127" height="50" as="geometry" />
        </mxCell>
        <mxCell id="Qnt6TcZh-FuW5jhdGk-x-244" style="edgeStyle=orthogonalEdgeStyle;rounded=0;orthogonalLoop=1;jettySize=auto;html=1;entryX=0;entryY=0.5;entryDx=0;entryDy=0;" parent="1" source="Qnt6TcZh-FuW5jhdGk-x-219" target="Qnt6TcZh-FuW5jhdGk-x-241" edge="1">
          <mxGeometry relative="1" as="geometry" />
        </mxCell>
        <mxCell id="Qnt6TcZh-FuW5jhdGk-x-245" style="edgeStyle=orthogonalEdgeStyle;rounded=0;orthogonalLoop=1;jettySize=auto;html=1;entryX=0;entryY=0.5;entryDx=0;entryDy=0;" parent="1" source="Qnt6TcZh-FuW5jhdGk-x-219" target="Qnt6TcZh-FuW5jhdGk-x-242" edge="1">
          <mxGeometry relative="1" as="geometry" />
        </mxCell>
        <mxCell id="Qnt6TcZh-FuW5jhdGk-x-219" value="&lt;span style=&quot;font-size: 20px;&quot;&gt;문의 &lt;br&gt;상세페이지&lt;/span&gt;" style="rounded=0;fillColor=#23445D;strokeColor=none;strokeWidth=2;fontFamily=Helvetica;html=1;gradientColor=none;fontColor=#FFFFFF;" parent="1" vertex="1">
          <mxGeometry x="1230.0045578231293" y="765" width="127" height="50" as="geometry" />
        </mxCell>
        <mxCell id="Qnt6TcZh-FuW5jhdGk-x-221" value="&lt;span style=&quot;font-size: 20px;&quot;&gt;FAQ 리스트&lt;/span&gt;" style="rounded=0;fillColor=#23445D;strokeColor=none;strokeWidth=2;fontFamily=Helvetica;html=1;gradientColor=none;fontColor=#FFFFFF;" parent="1" vertex="1">
          <mxGeometry x="890.0045578231293" y="965" width="127" height="50" as="geometry" />
        </mxCell>
        <mxCell id="Qnt6TcZh-FuW5jhdGk-x-230" style="edgeStyle=orthogonalEdgeStyle;rounded=0;orthogonalLoop=1;jettySize=auto;html=1;entryX=0;entryY=0.5;entryDx=0;entryDy=0;" parent="1" source="Qnt6TcZh-FuW5jhdGk-x-223" target="Qnt6TcZh-FuW5jhdGk-x-225" edge="1">
          <mxGeometry relative="1" as="geometry" />
        </mxCell>
        <mxCell id="Qnt6TcZh-FuW5jhdGk-x-232" style="edgeStyle=orthogonalEdgeStyle;rounded=0;orthogonalLoop=1;jettySize=auto;html=1;entryX=0;entryY=0.5;entryDx=0;entryDy=0;" parent="1" source="Qnt6TcZh-FuW5jhdGk-x-223" target="Qnt6TcZh-FuW5jhdGk-x-226" edge="1">
          <mxGeometry relative="1" as="geometry" />
        </mxCell>
        <mxCell id="Qnt6TcZh-FuW5jhdGk-x-233" style="edgeStyle=orthogonalEdgeStyle;rounded=0;orthogonalLoop=1;jettySize=auto;html=1;entryX=0;entryY=0.5;entryDx=0;entryDy=0;" parent="1" source="Qnt6TcZh-FuW5jhdGk-x-223" target="Qnt6TcZh-FuW5jhdGk-x-227" edge="1">
          <mxGeometry relative="1" as="geometry" />
        </mxCell>
        <mxCell id="Qnt6TcZh-FuW5jhdGk-x-234" style="edgeStyle=orthogonalEdgeStyle;rounded=0;orthogonalLoop=1;jettySize=auto;html=1;entryX=0;entryY=0.5;entryDx=0;entryDy=0;" parent="1" source="Qnt6TcZh-FuW5jhdGk-x-223" target="Qnt6TcZh-FuW5jhdGk-x-228" edge="1">
          <mxGeometry relative="1" as="geometry" />
        </mxCell>
        <mxCell id="Qnt6TcZh-FuW5jhdGk-x-235" style="edgeStyle=orthogonalEdgeStyle;rounded=0;orthogonalLoop=1;jettySize=auto;html=1;entryX=0;entryY=0.5;entryDx=0;entryDy=0;" parent="1" source="Qnt6TcZh-FuW5jhdGk-x-223" target="Qnt6TcZh-FuW5jhdGk-x-231" edge="1">
          <mxGeometry relative="1" as="geometry" />
        </mxCell>
        <mxCell id="Qnt6TcZh-FuW5jhdGk-x-223" value="&lt;span style=&quot;font-size: 20px;&quot;&gt;마이 페이지&lt;/span&gt;" style="rounded=0;fillColor=#23445D;strokeColor=none;strokeWidth=2;fontFamily=Helvetica;html=1;gradientColor=none;fontColor=#FFFFFF;" parent="1" vertex="1">
          <mxGeometry x="890.0045578231293" y="1065" width="127" height="50" as="geometry" />
        </mxCell>
        <mxCell id="Qnt6TcZh-FuW5jhdGk-x-250" style="edgeStyle=orthogonalEdgeStyle;rounded=0;orthogonalLoop=1;jettySize=auto;html=1;entryX=0;entryY=0.5;entryDx=0;entryDy=0;" parent="1" source="Qnt6TcZh-FuW5jhdGk-x-225" target="Qnt6TcZh-FuW5jhdGk-x-248" edge="1">
          <mxGeometry relative="1" as="geometry" />
        </mxCell>
        <mxCell id="Qnt6TcZh-FuW5jhdGk-x-251" style="edgeStyle=orthogonalEdgeStyle;rounded=0;orthogonalLoop=1;jettySize=auto;html=1;entryX=0;entryY=0.5;entryDx=0;entryDy=0;" parent="1" source="Qnt6TcZh-FuW5jhdGk-x-225" target="Qnt6TcZh-FuW5jhdGk-x-249" edge="1">
          <mxGeometry relative="1" as="geometry">
            <Array as="points">
              <mxPoint x="1430" y="1291" />
              <mxPoint x="1430" y="1391" />
            </Array>
          </mxGeometry>
        </mxCell>
        <mxCell id="Qnt6TcZh-FuW5jhdGk-x-253" style="edgeStyle=orthogonalEdgeStyle;rounded=0;orthogonalLoop=1;jettySize=auto;html=1;entryX=0;entryY=0.5;entryDx=0;entryDy=0;" parent="1" source="Qnt6TcZh-FuW5jhdGk-x-225" target="Qnt6TcZh-FuW5jhdGk-x-252" edge="1">
          <mxGeometry relative="1" as="geometry">
            <Array as="points">
              <mxPoint x="1430" y="1291" />
              <mxPoint x="1430" y="1491" />
            </Array>
          </mxGeometry>
        </mxCell>
        <mxCell id="Qnt6TcZh-FuW5jhdGk-x-225" value="&lt;span style=&quot;font-size: 20px;&quot;&gt;프로필&lt;/span&gt;" style="rounded=0;fillColor=#23445D;strokeColor=none;strokeWidth=2;fontFamily=Helvetica;html=1;gradientColor=none;fontColor=#FFFFFF;" parent="1" vertex="1">
          <mxGeometry x="1230.0045578231293" y="1266" width="127" height="50" as="geometry" />
        </mxCell>
        <mxCell id="Qnt6TcZh-FuW5jhdGk-x-237" style="edgeStyle=orthogonalEdgeStyle;rounded=0;orthogonalLoop=1;jettySize=auto;html=1;entryX=0;entryY=0.5;entryDx=0;entryDy=0;" parent="1" source="Qnt6TcZh-FuW5jhdGk-x-226" target="Qnt6TcZh-FuW5jhdGk-x-236" edge="1">
          <mxGeometry relative="1" as="geometry" />
        </mxCell>
        <mxCell id="Qnt6TcZh-FuW5jhdGk-x-226" value="&lt;span style=&quot;font-size: 20px;&quot;&gt;결제내역&lt;/span&gt;" style="rounded=0;fillColor=#23445D;strokeColor=none;strokeWidth=2;fontFamily=Helvetica;html=1;gradientColor=none;fontColor=#FFFFFF;" parent="1" vertex="1">
          <mxGeometry x="1230.0045578231293" y="1165" width="127" height="50" as="geometry" />
        </mxCell>
        <mxCell id="Qnt6TcZh-FuW5jhdGk-x-227" value="&lt;span style=&quot;font-size: 20px;&quot;&gt;나의 후기&lt;/span&gt;" style="rounded=0;fillColor=#23445D;strokeColor=none;strokeWidth=2;fontFamily=Helvetica;html=1;gradientColor=none;fontColor=#FFFFFF;" parent="1" vertex="1">
          <mxGeometry x="1230.0045578231293" y="1570" width="127" height="50" as="geometry" />
        </mxCell>
        <mxCell id="Qnt6TcZh-FuW5jhdGk-x-228" value="&lt;span style=&quot;font-size: 17px;&quot;&gt;나의 관심클래스&lt;/span&gt;" style="rounded=0;fillColor=#23445D;strokeColor=none;strokeWidth=2;fontFamily=Helvetica;html=1;gradientColor=none;fontColor=#FFFFFF;" parent="1" vertex="1">
          <mxGeometry x="1230.0045578231293" y="1470" width="127" height="50" as="geometry" />
        </mxCell>
        <mxCell id="Qnt6TcZh-FuW5jhdGk-x-247" style="edgeStyle=orthogonalEdgeStyle;rounded=0;orthogonalLoop=1;jettySize=auto;html=1;entryX=0.5;entryY=1;entryDx=0;entryDy=0;" parent="1" source="Qnt6TcZh-FuW5jhdGk-x-231" target="Qnt6TcZh-FuW5jhdGk-x-219" edge="1">
          <mxGeometry relative="1" as="geometry">
            <Array as="points">
              <mxPoint x="1294" y="980" />
              <mxPoint x="1294" y="980" />
            </Array>
          </mxGeometry>
        </mxCell>
        <mxCell id="Qnt6TcZh-FuW5jhdGk-x-231" value="&lt;span style=&quot;font-size: 20px;&quot;&gt;내 문의내역&lt;/span&gt;" style="rounded=0;fillColor=#23445D;strokeColor=none;strokeWidth=2;fontFamily=Helvetica;html=1;gradientColor=none;fontColor=#FFFFFF;" parent="1" vertex="1">
          <mxGeometry x="1230.0045578231293" y="1065" width="127" height="50" as="geometry" />
        </mxCell>
        <mxCell id="Qnt6TcZh-FuW5jhdGk-x-236" value="&lt;span style=&quot;font-size: 20px;&quot;&gt;환불&lt;/span&gt;" style="rounded=0;fillColor=#23445D;strokeColor=none;strokeWidth=2;fontFamily=Helvetica;html=1;gradientColor=none;fontColor=#FFFFFF;" parent="1" vertex="1">
          <mxGeometry x="1530.0045578231293" y="1165" width="127" height="50" as="geometry" />
        </mxCell>
        <mxCell id="Qnt6TcZh-FuW5jhdGk-x-241" value="&lt;font style=&quot;font-size: 20px;&quot;&gt;문의 등록&lt;/font&gt;" style="rounded=0;fillColor=#23445D;strokeColor=none;strokeWidth=2;fontFamily=Helvetica;html=1;gradientColor=none;fontColor=#FFFFFF;" parent="1" vertex="1">
          <mxGeometry x="1530.0045578231293" y="765" width="127" height="50" as="geometry" />
        </mxCell>
        <mxCell id="Qnt6TcZh-FuW5jhdGk-x-242" value="&lt;span style=&quot;font-size: 20px;&quot;&gt;문의 수정&lt;/span&gt;" style="rounded=0;fillColor=#23445D;strokeColor=none;strokeWidth=2;fontFamily=Helvetica;html=1;gradientColor=none;fontColor=#FFFFFF;" parent="1" vertex="1">
          <mxGeometry x="1530.0045578231293" y="865" width="127" height="50" as="geometry" />
        </mxCell>
        <mxCell id="Qnt6TcZh-FuW5jhdGk-x-248" value="&lt;font style=&quot;font-size: 16px;&quot;&gt;프로필 이미지&lt;br&gt;수정&lt;/font&gt;" style="rounded=0;fillColor=#23445D;strokeColor=none;strokeWidth=2;fontFamily=Helvetica;html=1;gradientColor=none;fontColor=#FFFFFF;" parent="1" vertex="1">
          <mxGeometry x="1617.8445578231294" y="1266" width="127" height="50" as="geometry" />
        </mxCell>
        <mxCell id="Qnt6TcZh-FuW5jhdGk-x-249" value="&lt;font style=&quot;font-size: 16px;&quot;&gt;회원 정보 수정&lt;/font&gt;" style="rounded=0;fillColor=#23445D;strokeColor=none;strokeWidth=2;fontFamily=Helvetica;html=1;gradientColor=none;fontColor=#FFFFFF;" parent="1" vertex="1">
          <mxGeometry x="1617.8445578231294" y="1366" width="127" height="50" as="geometry" />
        </mxCell>
        <mxCell id="Qnt6TcZh-FuW5jhdGk-x-256" style="edgeStyle=orthogonalEdgeStyle;rounded=0;orthogonalLoop=1;jettySize=auto;html=1;entryX=0;entryY=0.5;entryDx=0;entryDy=0;" parent="1" source="Qnt6TcZh-FuW5jhdGk-x-252" target="Qnt6TcZh-FuW5jhdGk-x-254" edge="1">
          <mxGeometry relative="1" as="geometry" />
        </mxCell>
        <mxCell id="Qnt6TcZh-FuW5jhdGk-x-257" style="edgeStyle=orthogonalEdgeStyle;rounded=0;orthogonalLoop=1;jettySize=auto;html=1;entryX=0;entryY=0.5;entryDx=0;entryDy=0;" parent="1" source="Qnt6TcZh-FuW5jhdGk-x-252" target="Qnt6TcZh-FuW5jhdGk-x-255" edge="1">
          <mxGeometry relative="1" as="geometry" />
        </mxCell>
        <mxCell id="Qnt6TcZh-FuW5jhdGk-x-416" style="edgeStyle=orthogonalEdgeStyle;rounded=0;orthogonalLoop=1;jettySize=auto;html=1;entryX=0;entryY=0.5;entryDx=0;entryDy=0;" parent="1" source="Qnt6TcZh-FuW5jhdGk-x-252" target="Qnt6TcZh-FuW5jhdGk-x-258" edge="1">
          <mxGeometry relative="1" as="geometry" />
        </mxCell>
        <mxCell id="Qnt6TcZh-FuW5jhdGk-x-252" value="&lt;font style=&quot;font-size: 20px;&quot;&gt;수강내역&lt;/font&gt;" style="rounded=0;fillColor=#23445D;strokeColor=none;strokeWidth=2;fontFamily=Helvetica;html=1;gradientColor=none;fontColor=#FFFFFF;" parent="1" vertex="1">
          <mxGeometry x="1617.8445578231294" y="1466" width="127" height="50" as="geometry" />
        </mxCell>
        <mxCell id="Qnt6TcZh-FuW5jhdGk-x-254" value="&lt;span style=&quot;font-size: 20px;&quot;&gt;리뷰쓰기&lt;/span&gt;" style="rounded=0;fillColor=#23445D;strokeColor=none;strokeWidth=2;fontFamily=Helvetica;html=1;gradientColor=none;fontColor=#FFFFFF;" parent="1" vertex="1">
          <mxGeometry x="1940.0045578231293" y="1366" width="127" height="50" as="geometry" />
        </mxCell>
        <mxCell id="Qnt6TcZh-FuW5jhdGk-x-255" value="&lt;span style=&quot;font-size: 20px;&quot;&gt;리뷰수정&lt;/span&gt;" style="rounded=0;fillColor=#23445D;strokeColor=none;strokeWidth=2;fontFamily=Helvetica;html=1;gradientColor=none;fontColor=#FFFFFF;" parent="1" vertex="1">
          <mxGeometry x="1940.0045578231293" y="1466" width="127" height="50" as="geometry" />
        </mxCell>
        <mxCell id="Qnt6TcZh-FuW5jhdGk-x-258" value="&lt;span style=&quot;font-size: 20px;&quot;&gt;리뷰삭제&lt;/span&gt;" style="rounded=0;fillColor=#23445D;strokeColor=none;strokeWidth=2;fontFamily=Helvetica;html=1;gradientColor=none;fontColor=#FFFFFF;" parent="1" vertex="1">
          <mxGeometry x="1940.0045578231293" y="1566" width="127" height="50" as="geometry" />
        </mxCell>
        <mxCell id="Qnt6TcZh-FuW5jhdGk-x-267" value="Lane 1.4" style="strokeColor=#BAC8D3;fillColor=#5d7f99;fontSize=19;strokeWidth=2;horizontal=0;fontFamily=Helvetica;html=1;labelBackgroundColor=none;fontColor=#FFFFFF;rounded=0;" parent="1" vertex="1">
          <mxGeometry x="150.33" y="740" width="40" height="100" as="geometry" />
        </mxCell>
        <mxCell id="Qnt6TcZh-FuW5jhdGk-x-268" value="Lane 1.5" style="strokeColor=#BAC8D3;fillColor=#5d7f99;fontSize=19;strokeWidth=2;horizontal=0;fontFamily=Helvetica;html=1;labelBackgroundColor=none;fontColor=#FFFFFF;rounded=0;" parent="1" vertex="1">
          <mxGeometry x="150" y="840" width="40" height="100" as="geometry" />
        </mxCell>
        <mxCell id="Qnt6TcZh-FuW5jhdGk-x-269" value="Lane 1.6" style="strokeColor=#BAC8D3;fillColor=#5d7f99;fontSize=19;strokeWidth=2;horizontal=0;fontFamily=Helvetica;html=1;labelBackgroundColor=none;fontColor=#FFFFFF;rounded=0;" parent="1" vertex="1">
          <mxGeometry x="150.33" y="940" width="40" height="100" as="geometry" />
        </mxCell>
        <mxCell id="Qnt6TcZh-FuW5jhdGk-x-270" value="Lane 1.7" style="strokeColor=#BAC8D3;fillColor=#5d7f99;fontSize=19;strokeWidth=2;horizontal=0;fontFamily=Helvetica;html=1;labelBackgroundColor=none;fontColor=#FFFFFF;rounded=0;" parent="1" vertex="1">
          <mxGeometry x="150" y="1040" width="40" height="100" as="geometry" />
        </mxCell>
        <mxCell id="Qnt6TcZh-FuW5jhdGk-x-271" value="Lane 1.9" style="strokeColor=#BAC8D3;fillColor=#5d7f99;fontSize=19;strokeWidth=2;horizontal=0;fontFamily=Helvetica;html=1;labelBackgroundColor=none;fontColor=#FFFFFF;rounded=0;" parent="1" vertex="1">
          <mxGeometry x="150" y="1241" width="40" height="100" as="geometry" />
        </mxCell>
        <mxCell id="Qnt6TcZh-FuW5jhdGk-x-272" value="Lane 1.8" style="strokeColor=#BAC8D3;fillColor=#5d7f99;fontSize=19;strokeWidth=2;horizontal=0;fontFamily=Helvetica;html=1;labelBackgroundColor=none;fontColor=#FFFFFF;rounded=0;" parent="1" vertex="1">
          <mxGeometry x="150.33" y="1140.5" width="40" height="100" as="geometry" />
        </mxCell>
        <mxCell id="Qnt6TcZh-FuW5jhdGk-x-273" value="Lane 2.0" style="strokeColor=#BAC8D3;fillColor=#5d7f99;fontSize=19;strokeWidth=2;horizontal=0;fontFamily=Helvetica;html=1;labelBackgroundColor=none;fontColor=#FFFFFF;rounded=0;" parent="1" vertex="1">
          <mxGeometry x="150" y="1341" width="40" height="100" as="geometry" />
        </mxCell>
        <mxCell id="Qnt6TcZh-FuW5jhdGk-x-274" value="Lane 2.1" style="strokeColor=#BAC8D3;fillColor=#5d7f99;fontSize=19;strokeWidth=2;horizontal=0;fontFamily=Helvetica;html=1;labelBackgroundColor=none;fontColor=#FFFFFF;rounded=0;" parent="1" vertex="1">
          <mxGeometry x="150.33" y="1441" width="40" height="100" as="geometry" />
        </mxCell>
        <mxCell id="Qnt6TcZh-FuW5jhdGk-x-275" value="Lane 2.2" style="strokeColor=#BAC8D3;fillColor=#5d7f99;fontSize=19;strokeWidth=2;horizontal=0;fontFamily=Helvetica;html=1;labelBackgroundColor=none;fontColor=#FFFFFF;rounded=0;" parent="1" vertex="1">
          <mxGeometry x="150" y="1540" width="40" height="100" as="geometry" />
        </mxCell>
        <mxCell id="Qnt6TcZh-FuW5jhdGk-x-276" value="" style="strokeColor=#FFFFFF;fillColor=#BAC8D3;fontSize=18;strokeWidth=2;fontFamily=Helvetica;html=1;opacity=90;rounded=0;" parent="1" vertex="1">
          <mxGeometry x="190" y="1740" width="646.6666666666666" height="100" as="geometry" />
        </mxCell>
        <mxCell id="Qnt6TcZh-FuW5jhdGk-x-277" value="" style="strokeColor=#FFFFFF;fillColor=#BAC8D3;fontSize=18;strokeWidth=2;fontFamily=Helvetica;html=1;opacity=90;rounded=0;" parent="1" vertex="1">
          <mxGeometry x="837.1700000000001" y="1740" width="646.6666666666666" height="100" as="geometry" />
        </mxCell>
        <mxCell id="Qnt6TcZh-FuW5jhdGk-x-278" value="" style="strokeColor=#FFFFFF;fillColor=#BAC8D3;fontSize=18;strokeWidth=2;fontFamily=Helvetica;html=1;opacity=90;rounded=0;" parent="1" vertex="1">
          <mxGeometry x="1483.8400000000001" y="1740" width="646.6666666666666" height="100" as="geometry" />
        </mxCell>
        <mxCell id="Qnt6TcZh-FuW5jhdGk-x-284" value="" style="strokeColor=#FFFFFF;fillColor=#BAC8D3;fontSize=18;strokeWidth=2;fontFamily=Helvetica;html=1;opacity=60;rounded=0;" parent="1" vertex="1">
          <mxGeometry x="189.16000000000003" y="1640" width="646.6666666666666" height="100" as="geometry" />
        </mxCell>
        <mxCell id="Qnt6TcZh-FuW5jhdGk-x-285" value="" style="strokeColor=#FFFFFF;fillColor=#BAC8D3;fontSize=18;strokeWidth=2;fontFamily=Helvetica;html=1;opacity=60;rounded=0;" parent="1" vertex="1">
          <mxGeometry x="835.83" y="1640" width="646.6666666666666" height="100" as="geometry" />
        </mxCell>
        <mxCell id="Qnt6TcZh-FuW5jhdGk-x-286" value="" style="strokeColor=#FFFFFF;fillColor=#BAC8D3;fontSize=18;strokeWidth=2;fontFamily=Helvetica;html=1;opacity=60;rounded=0;" parent="1" vertex="1">
          <mxGeometry x="1483.08" y="1640" width="646.6666666666666" height="100" as="geometry" />
        </mxCell>
        <mxCell id="Qnt6TcZh-FuW5jhdGk-x-292" value="" style="strokeColor=#FFFFFF;fillColor=#BAC8D3;fontSize=18;strokeWidth=2;fontFamily=Helvetica;html=1;opacity=90;rounded=0;" parent="1" vertex="1">
          <mxGeometry x="191.17" y="1940" width="646.6666666666666" height="100" as="geometry" />
        </mxCell>
        <mxCell id="Qnt6TcZh-FuW5jhdGk-x-293" value="" style="strokeColor=#FFFFFF;fillColor=#BAC8D3;fontSize=18;strokeWidth=2;fontFamily=Helvetica;html=1;opacity=90;rounded=0;" parent="1" vertex="1">
          <mxGeometry x="838.34" y="1940" width="646.6666666666666" height="100" as="geometry" />
        </mxCell>
        <mxCell id="Qnt6TcZh-FuW5jhdGk-x-294" value="" style="strokeColor=#FFFFFF;fillColor=#BAC8D3;fontSize=18;strokeWidth=2;fontFamily=Helvetica;html=1;opacity=90;rounded=0;" parent="1" vertex="1">
          <mxGeometry x="1485.0100000000002" y="1940" width="646.6666666666666" height="100" as="geometry" />
        </mxCell>
        <mxCell id="Qnt6TcZh-FuW5jhdGk-x-296" value="" style="strokeColor=#FFFFFF;fillColor=#BAC8D3;fontSize=18;strokeWidth=2;fontFamily=Helvetica;html=1;opacity=60;rounded=0;" parent="1" vertex="1">
          <mxGeometry x="190.33" y="1840" width="646.6666666666666" height="100" as="geometry" />
        </mxCell>
        <mxCell id="Qnt6TcZh-FuW5jhdGk-x-297" value="" style="strokeColor=#FFFFFF;fillColor=#BAC8D3;fontSize=18;strokeWidth=2;fontFamily=Helvetica;html=1;opacity=60;rounded=0;" parent="1" vertex="1">
          <mxGeometry x="837" y="1840" width="646.6666666666666" height="100" as="geometry" />
        </mxCell>
        <mxCell id="Qnt6TcZh-FuW5jhdGk-x-298" value="" style="strokeColor=#FFFFFF;fillColor=#BAC8D3;fontSize=18;strokeWidth=2;fontFamily=Helvetica;html=1;opacity=60;rounded=0;" parent="1" vertex="1">
          <mxGeometry x="1484.25" y="1840" width="646.6666666666666" height="100" as="geometry" />
        </mxCell>
        <mxCell id="Qnt6TcZh-FuW5jhdGk-x-300" value="" style="strokeColor=#FFFFFF;fillColor=#BAC8D3;fontSize=18;strokeWidth=2;fontFamily=Helvetica;html=1;opacity=90;rounded=0;" parent="1" vertex="1">
          <mxGeometry x="189.67" y="2140" width="646.6666666666666" height="100" as="geometry" />
        </mxCell>
        <mxCell id="Qnt6TcZh-FuW5jhdGk-x-301" value="" style="strokeColor=#FFFFFF;fillColor=#BAC8D3;fontSize=18;strokeWidth=2;fontFamily=Helvetica;html=1;opacity=90;rounded=0;" parent="1" vertex="1">
          <mxGeometry x="836.84" y="2140" width="646.6666666666666" height="100" as="geometry" />
        </mxCell>
        <mxCell id="Qnt6TcZh-FuW5jhdGk-x-302" value="" style="strokeColor=#FFFFFF;fillColor=#BAC8D3;fontSize=18;strokeWidth=2;fontFamily=Helvetica;html=1;opacity=90;rounded=0;" parent="1" vertex="1">
          <mxGeometry x="1483.5100000000002" y="2140" width="646.6666666666666" height="100" as="geometry" />
        </mxCell>
        <mxCell id="Qnt6TcZh-FuW5jhdGk-x-304" value="" style="strokeColor=#FFFFFF;fillColor=#BAC8D3;fontSize=18;strokeWidth=2;fontFamily=Helvetica;html=1;opacity=60;rounded=0;" parent="1" vertex="1">
          <mxGeometry x="188.83" y="2040" width="646.6666666666666" height="100" as="geometry" />
        </mxCell>
        <mxCell id="Qnt6TcZh-FuW5jhdGk-x-305" value="" style="strokeColor=#FFFFFF;fillColor=#BAC8D3;fontSize=18;strokeWidth=2;fontFamily=Helvetica;html=1;opacity=60;rounded=0;" parent="1" vertex="1">
          <mxGeometry x="835.5" y="2040" width="646.6666666666666" height="100" as="geometry" />
        </mxCell>
        <mxCell id="Qnt6TcZh-FuW5jhdGk-x-306" value="" style="strokeColor=#FFFFFF;fillColor=#BAC8D3;fontSize=18;strokeWidth=2;fontFamily=Helvetica;html=1;opacity=60;rounded=0;" parent="1" vertex="1">
          <mxGeometry x="1482.75" y="2040" width="646.6666666666666" height="100" as="geometry" />
        </mxCell>
        <mxCell id="Qnt6TcZh-FuW5jhdGk-x-417" style="edgeStyle=orthogonalEdgeStyle;rounded=0;orthogonalLoop=1;jettySize=auto;html=1;entryX=0;entryY=0.5;entryDx=0;entryDy=0;" parent="1" source="Qnt6TcZh-FuW5jhdGk-x-308" target="Qnt6TcZh-FuW5jhdGk-x-309" edge="1">
          <mxGeometry relative="1" as="geometry" />
        </mxCell>
        <mxCell id="Qnt6TcZh-FuW5jhdGk-x-418" style="edgeStyle=orthogonalEdgeStyle;rounded=0;orthogonalLoop=1;jettySize=auto;html=1;entryX=0;entryY=0.5;entryDx=0;entryDy=0;" parent="1" source="Qnt6TcZh-FuW5jhdGk-x-308" target="Qnt6TcZh-FuW5jhdGk-x-352" edge="1">
          <mxGeometry relative="1" as="geometry" />
        </mxCell>
        <mxCell id="Qnt6TcZh-FuW5jhdGk-x-419" style="edgeStyle=orthogonalEdgeStyle;rounded=0;orthogonalLoop=1;jettySize=auto;html=1;entryX=0;entryY=0.5;entryDx=0;entryDy=0;" parent="1" source="Qnt6TcZh-FuW5jhdGk-x-308" target="Qnt6TcZh-FuW5jhdGk-x-374" edge="1">
          <mxGeometry relative="1" as="geometry" />
        </mxCell>
        <mxCell id="Qnt6TcZh-FuW5jhdGk-x-421" style="edgeStyle=orthogonalEdgeStyle;rounded=0;orthogonalLoop=1;jettySize=auto;html=1;entryX=0;entryY=0.5;entryDx=0;entryDy=0;" parent="1" source="Qnt6TcZh-FuW5jhdGk-x-308" target="Qnt6TcZh-FuW5jhdGk-x-404" edge="1">
          <mxGeometry relative="1" as="geometry" />
        </mxCell>
        <mxCell id="Qnt6TcZh-FuW5jhdGk-x-422" style="edgeStyle=orthogonalEdgeStyle;rounded=0;orthogonalLoop=1;jettySize=auto;html=1;entryX=0;entryY=0.5;entryDx=0;entryDy=0;" parent="1" source="Qnt6TcZh-FuW5jhdGk-x-308" target="Qnt6TcZh-FuW5jhdGk-x-360" edge="1">
          <mxGeometry relative="1" as="geometry" />
        </mxCell>
        <mxCell id="Qnt6TcZh-FuW5jhdGk-x-424" style="edgeStyle=orthogonalEdgeStyle;rounded=0;orthogonalLoop=1;jettySize=auto;html=1;entryX=0;entryY=0.5;entryDx=0;entryDy=0;" parent="1" source="Qnt6TcZh-FuW5jhdGk-x-308" target="Qnt6TcZh-FuW5jhdGk-x-372" edge="1">
          <mxGeometry relative="1" as="geometry" />
        </mxCell>
        <mxCell id="Qnt6TcZh-FuW5jhdGk-x-308" value="&lt;span style=&quot;font-size: 20px;&quot;&gt;로그인&lt;/span&gt;" style="rounded=0;fillColor=#23445D;strokeColor=none;strokeWidth=2;fontFamily=Helvetica;html=1;gradientColor=none;fontColor=#FFFFFF;" parent="1" vertex="1">
          <mxGeometry x="260.0045578231293" y="1665" width="127" height="50" as="geometry" />
        </mxCell>
        <mxCell id="Qnt6TcZh-FuW5jhdGk-x-312" style="edgeStyle=orthogonalEdgeStyle;rounded=0;orthogonalLoop=1;jettySize=auto;html=1;entryX=0;entryY=0.5;entryDx=0;entryDy=0;" parent="1" source="Qnt6TcZh-FuW5jhdGk-x-309" target="Qnt6TcZh-FuW5jhdGk-x-310" edge="1">
          <mxGeometry relative="1" as="geometry" />
        </mxCell>
        <mxCell id="Qnt6TcZh-FuW5jhdGk-x-321" style="edgeStyle=orthogonalEdgeStyle;rounded=0;orthogonalLoop=1;jettySize=auto;html=1;entryX=0;entryY=0.5;entryDx=0;entryDy=0;" parent="1" source="Qnt6TcZh-FuW5jhdGk-x-309" target="Qnt6TcZh-FuW5jhdGk-x-313" edge="1">
          <mxGeometry relative="1" as="geometry" />
        </mxCell>
        <mxCell id="Qnt6TcZh-FuW5jhdGk-x-322" style="edgeStyle=orthogonalEdgeStyle;rounded=0;orthogonalLoop=1;jettySize=auto;html=1;entryX=0;entryY=0.5;entryDx=0;entryDy=0;" parent="1" source="Qnt6TcZh-FuW5jhdGk-x-309" target="Qnt6TcZh-FuW5jhdGk-x-314" edge="1">
          <mxGeometry relative="1" as="geometry" />
        </mxCell>
        <mxCell id="Qnt6TcZh-FuW5jhdGk-x-323" style="edgeStyle=orthogonalEdgeStyle;rounded=0;orthogonalLoop=1;jettySize=auto;html=1;entryX=0;entryY=0.5;entryDx=0;entryDy=0;" parent="1" source="Qnt6TcZh-FuW5jhdGk-x-309" target="Qnt6TcZh-FuW5jhdGk-x-315" edge="1">
          <mxGeometry relative="1" as="geometry" />
        </mxCell>
        <mxCell id="Qnt6TcZh-FuW5jhdGk-x-324" style="edgeStyle=orthogonalEdgeStyle;rounded=0;orthogonalLoop=1;jettySize=auto;html=1;entryX=0;entryY=0.5;entryDx=0;entryDy=0;" parent="1" source="Qnt6TcZh-FuW5jhdGk-x-309" target="Qnt6TcZh-FuW5jhdGk-x-316" edge="1">
          <mxGeometry relative="1" as="geometry" />
        </mxCell>
        <mxCell id="Qnt6TcZh-FuW5jhdGk-x-309" value="&lt;span style=&quot;font-size: 20px;&quot;&gt;대시보드&lt;/span&gt;" style="rounded=0;fillColor=#23445D;strokeColor=none;strokeWidth=2;fontFamily=Helvetica;html=1;gradientColor=none;fontColor=#FFFFFF;" parent="1" vertex="1">
          <mxGeometry x="590.0045578231293" y="1665" width="127" height="50" as="geometry" />
        </mxCell>
        <mxCell id="Qnt6TcZh-FuW5jhdGk-x-310" value="&lt;span style=&quot;font-size: 20px;&quot;&gt;활성화 계정&lt;/span&gt;" style="rounded=0;fillColor=#23445D;strokeColor=none;strokeWidth=2;fontFamily=Helvetica;html=1;gradientColor=none;fontColor=#FFFFFF;" parent="1" vertex="1">
          <mxGeometry x="1230.0045578231293" y="1665" width="127" height="50" as="geometry" />
        </mxCell>
        <mxCell id="Qnt6TcZh-FuW5jhdGk-x-313" value="&lt;font style=&quot;font-size: 18px;&quot;&gt;전체 매출 통계&lt;/font&gt;" style="rounded=0;fillColor=#23445D;strokeColor=none;strokeWidth=2;fontFamily=Helvetica;html=1;gradientColor=none;fontColor=#FFFFFF;" parent="1" vertex="1">
          <mxGeometry x="1230" y="1760" width="127" height="50" as="geometry" />
        </mxCell>
        <mxCell id="Qnt6TcZh-FuW5jhdGk-x-314" value="&lt;font style=&quot;font-size: 18px;&quot;&gt;전체 예약 통계&lt;/font&gt;" style="rounded=0;fillColor=#23445D;strokeColor=none;strokeWidth=2;fontFamily=Helvetica;html=1;gradientColor=none;fontColor=#FFFFFF;" parent="1" vertex="1">
          <mxGeometry x="1230.0045578231293" y="1865" width="127" height="50" as="geometry" />
        </mxCell>
        <mxCell id="Qnt6TcZh-FuW5jhdGk-x-326" style="edgeStyle=orthogonalEdgeStyle;rounded=0;orthogonalLoop=1;jettySize=auto;html=1;entryX=0;entryY=0.5;entryDx=0;entryDy=0;" parent="1" source="Qnt6TcZh-FuW5jhdGk-x-315" target="Qnt6TcZh-FuW5jhdGk-x-325" edge="1">
          <mxGeometry relative="1" as="geometry" />
        </mxCell>
        <mxCell id="Qnt6TcZh-FuW5jhdGk-x-315" value="&lt;font style=&quot;font-size: 18px;&quot;&gt;최근 공지사항&lt;/font&gt;" style="rounded=0;fillColor=#23445D;strokeColor=none;strokeWidth=2;fontFamily=Helvetica;html=1;gradientColor=none;fontColor=#FFFFFF;" parent="1" vertex="1">
          <mxGeometry x="1230.0045578231293" y="1965" width="127" height="50" as="geometry" />
        </mxCell>
        <mxCell id="Qnt6TcZh-FuW5jhdGk-x-319" style="edgeStyle=orthogonalEdgeStyle;rounded=0;orthogonalLoop=1;jettySize=auto;html=1;entryX=0;entryY=0.5;entryDx=0;entryDy=0;" parent="1" source="Qnt6TcZh-FuW5jhdGk-x-316" target="Qnt6TcZh-FuW5jhdGk-x-317" edge="1">
          <mxGeometry relative="1" as="geometry" />
        </mxCell>
        <mxCell id="Qnt6TcZh-FuW5jhdGk-x-316" value="&lt;font style=&quot;font-size: 18px;&quot;&gt;최근 문의사항&lt;/font&gt;" style="rounded=0;fillColor=#23445D;strokeColor=none;strokeWidth=2;fontFamily=Helvetica;html=1;gradientColor=none;fontColor=#FFFFFF;" parent="1" vertex="1">
          <mxGeometry x="1229.4945578231293" y="2165" width="127" height="50" as="geometry" />
        </mxCell>
        <mxCell id="Qnt6TcZh-FuW5jhdGk-x-320" style="edgeStyle=orthogonalEdgeStyle;rounded=0;orthogonalLoop=1;jettySize=auto;html=1;entryX=0;entryY=0.5;entryDx=0;entryDy=0;" parent="1" source="Qnt6TcZh-FuW5jhdGk-x-317" target="Qnt6TcZh-FuW5jhdGk-x-318" edge="1">
          <mxGeometry relative="1" as="geometry" />
        </mxCell>
        <mxCell id="Qnt6TcZh-FuW5jhdGk-x-317" value="&lt;font style=&quot;font-size: 14px;&quot;&gt;문의 리스트&lt;br&gt;(답변, 답변수정&lt;br&gt;,삭제)&lt;/font&gt;" style="rounded=0;fillColor=#23445D;strokeColor=none;strokeWidth=2;fontFamily=Helvetica;html=1;gradientColor=none;fontColor=#FFFFFF;" parent="1" vertex="1">
          <mxGeometry x="1529.4945578231293" y="2165" width="127" height="50" as="geometry" />
        </mxCell>
        <mxCell id="Qnt6TcZh-FuW5jhdGk-x-318" value="&lt;span style=&quot;font-size: 18px;&quot;&gt;문의 상세보기&lt;br&gt;&lt;/span&gt;" style="rounded=0;fillColor=#23445D;strokeColor=none;strokeWidth=2;fontFamily=Helvetica;html=1;gradientColor=none;fontColor=#FFFFFF;" parent="1" vertex="1">
          <mxGeometry x="1743.1645578231294" y="2165" width="127" height="50" as="geometry" />
        </mxCell>
        <mxCell id="Qnt6TcZh-FuW5jhdGk-x-328" style="edgeStyle=orthogonalEdgeStyle;rounded=0;orthogonalLoop=1;jettySize=auto;html=1;" parent="1" source="Qnt6TcZh-FuW5jhdGk-x-325" target="Qnt6TcZh-FuW5jhdGk-x-327" edge="1">
          <mxGeometry relative="1" as="geometry" />
        </mxCell>
        <mxCell id="Qnt6TcZh-FuW5jhdGk-x-325" value="&lt;span style=&quot;font-size: 16px;&quot;&gt;공지 리스트&lt;br&gt;(등록, 수정, 삭제)&lt;br&gt;&lt;/span&gt;" style="rounded=0;fillColor=#23445D;strokeColor=none;strokeWidth=2;fontFamily=Helvetica;html=1;gradientColor=none;fontColor=#FFFFFF;" parent="1" vertex="1">
          <mxGeometry x="1530.0045578231293" y="1965" width="127" height="50" as="geometry" />
        </mxCell>
        <mxCell id="Qnt6TcZh-FuW5jhdGk-x-327" value="&lt;span style=&quot;font-size: 16px;&quot;&gt;공지 상세보기&lt;br&gt;&lt;/span&gt;" style="rounded=0;fillColor=#23445D;strokeColor=none;strokeWidth=2;fontFamily=Helvetica;html=1;gradientColor=none;fontColor=#FFFFFF;" parent="1" vertex="1">
          <mxGeometry x="1744.8445578231292" y="1965" width="127" height="50" as="geometry" />
        </mxCell>
        <mxCell id="Qnt6TcZh-FuW5jhdGk-x-331" value="" style="strokeColor=#FFFFFF;fillColor=#BAC8D3;fontSize=18;strokeWidth=2;fontFamily=Helvetica;html=1;opacity=90;rounded=0;" parent="1" vertex="1">
          <mxGeometry x="839.1800000000001" y="2340" width="646.6666666666666" height="100" as="geometry" />
        </mxCell>
        <mxCell id="Qnt6TcZh-FuW5jhdGk-x-332" value="" style="strokeColor=#FFFFFF;fillColor=#BAC8D3;fontSize=18;strokeWidth=2;fontFamily=Helvetica;html=1;opacity=90;rounded=0;" parent="1" vertex="1">
          <mxGeometry x="1485.8500000000001" y="2340" width="646.6666666666666" height="100" as="geometry" />
        </mxCell>
        <mxCell id="Qnt6TcZh-FuW5jhdGk-x-336" value="" style="strokeColor=#FFFFFF;fillColor=#BAC8D3;fontSize=18;strokeWidth=2;fontFamily=Helvetica;html=1;opacity=60;rounded=0;" parent="1" vertex="1">
          <mxGeometry x="1485.09" y="2240" width="646.6666666666666" height="100" as="geometry" />
        </mxCell>
        <mxCell id="Qnt6TcZh-FuW5jhdGk-x-346" value="" style="strokeColor=#FFFFFF;fillColor=#BAC8D3;fontSize=18;strokeWidth=2;fontFamily=Helvetica;html=1;opacity=90;rounded=0;" parent="1" vertex="1">
          <mxGeometry x="1486.69" y="2540" width="646.6666666666666" height="100" as="geometry" />
        </mxCell>
        <mxCell id="Qnt6TcZh-FuW5jhdGk-x-349" value="" style="strokeColor=#FFFFFF;fillColor=#BAC8D3;fontSize=18;strokeWidth=2;fontFamily=Helvetica;html=1;opacity=60;rounded=0;" parent="1" vertex="1">
          <mxGeometry x="838.6800000000001" y="2440" width="646.6666666666666" height="100" as="geometry" />
        </mxCell>
        <mxCell id="Qnt6TcZh-FuW5jhdGk-x-350" value="" style="strokeColor=#FFFFFF;fillColor=#BAC8D3;fontSize=18;strokeWidth=2;fontFamily=Helvetica;html=1;opacity=60;rounded=0;" parent="1" vertex="1">
          <mxGeometry x="1485.9299999999998" y="2440" width="646.6666666666666" height="100" as="geometry" />
        </mxCell>
        <mxCell id="Qnt6TcZh-FuW5jhdGk-x-357" style="edgeStyle=orthogonalEdgeStyle;rounded=0;orthogonalLoop=1;jettySize=auto;html=1;entryX=0;entryY=0.5;entryDx=0;entryDy=0;" parent="1" source="Qnt6TcZh-FuW5jhdGk-x-352" target="Qnt6TcZh-FuW5jhdGk-x-354" edge="1">
          <mxGeometry relative="1" as="geometry" />
        </mxCell>
        <mxCell id="Qnt6TcZh-FuW5jhdGk-x-358" style="edgeStyle=orthogonalEdgeStyle;rounded=0;orthogonalLoop=1;jettySize=auto;html=1;entryX=0;entryY=0.5;entryDx=0;entryDy=0;" parent="1" source="Qnt6TcZh-FuW5jhdGk-x-352" target="Qnt6TcZh-FuW5jhdGk-x-355" edge="1">
          <mxGeometry relative="1" as="geometry" />
        </mxCell>
        <mxCell id="Qnt6TcZh-FuW5jhdGk-x-359" style="edgeStyle=orthogonalEdgeStyle;rounded=0;orthogonalLoop=1;jettySize=auto;html=1;entryX=0;entryY=0.5;entryDx=0;entryDy=0;" parent="1" source="Qnt6TcZh-FuW5jhdGk-x-352" target="Qnt6TcZh-FuW5jhdGk-x-356" edge="1">
          <mxGeometry relative="1" as="geometry" />
        </mxCell>
        <mxCell id="Qnt6TcZh-FuW5jhdGk-x-352" value="&lt;span style=&quot;font-size: 20px;&quot;&gt;회원관리&lt;/span&gt;" style="rounded=0;fillColor=#23445D;strokeColor=none;strokeWidth=2;fontFamily=Helvetica;html=1;gradientColor=none;fontColor=#FFFFFF;" parent="1" vertex="1">
          <mxGeometry x="590.0045578231293" y="2265" width="127" height="50" as="geometry" />
        </mxCell>
        <mxCell id="Qnt6TcZh-FuW5jhdGk-x-354" value="&lt;span style=&quot;font-size: 20px;&quot;&gt;관리자&lt;br&gt;계정관리&lt;br&gt;&lt;/span&gt;" style="rounded=0;fillColor=#23445D;strokeColor=none;strokeWidth=2;fontFamily=Helvetica;html=1;gradientColor=none;fontColor=#FFFFFF;" parent="1" vertex="1">
          <mxGeometry x="1230.0045578231293" y="2265" width="127" height="50" as="geometry" />
        </mxCell>
        <mxCell id="Qnt6TcZh-FuW5jhdGk-x-355" value="&lt;span style=&quot;font-size: 20px;&quot;&gt;회원관리&lt;br&gt;(리스트)&lt;br&gt;&lt;/span&gt;" style="rounded=0;fillColor=#23445D;strokeColor=none;strokeWidth=2;fontFamily=Helvetica;html=1;gradientColor=none;fontColor=#FFFFFF;" parent="1" vertex="1">
          <mxGeometry x="1230.0045578231293" y="2365" width="127" height="50" as="geometry" />
        </mxCell>
        <mxCell id="Qnt6TcZh-FuW5jhdGk-x-356" value="&lt;span style=&quot;font-size: 20px;&quot;&gt;회원통계&lt;/span&gt;" style="rounded=0;fillColor=#23445D;strokeColor=none;strokeWidth=2;fontFamily=Helvetica;html=1;gradientColor=none;fontColor=#FFFFFF;" parent="1" vertex="1">
          <mxGeometry x="1229.4945578231293" y="2465" width="127" height="50" as="geometry" />
        </mxCell>
        <mxCell id="Qnt6TcZh-FuW5jhdGk-x-360" value="&lt;span style=&quot;font-size: 20px;&quot;&gt;매출통계&lt;/span&gt;" style="rounded=0;fillColor=#23445D;strokeColor=none;strokeWidth=2;fontFamily=Helvetica;html=1;gradientColor=none;fontColor=#FFFFFF;" parent="1" vertex="1">
          <mxGeometry x="590.0045578231293" y="2765" width="127" height="50" as="geometry" />
        </mxCell>
        <mxCell id="Qnt6TcZh-FuW5jhdGk-x-372" value="&lt;span style=&quot;font-size: 20px;&quot;&gt;예약통계&lt;/span&gt;" style="rounded=0;fillColor=#23445D;strokeColor=none;strokeWidth=2;fontFamily=Helvetica;html=1;gradientColor=none;fontColor=#FFFFFF;" parent="1" vertex="1">
          <mxGeometry x="590.0045578231293" y="2865" width="127" height="50" as="geometry" />
        </mxCell>
        <mxCell id="Qnt6TcZh-FuW5jhdGk-x-377" style="edgeStyle=orthogonalEdgeStyle;rounded=0;orthogonalLoop=1;jettySize=auto;html=1;entryX=0;entryY=0.5;entryDx=0;entryDy=0;" parent="1" source="Qnt6TcZh-FuW5jhdGk-x-374" target="Qnt6TcZh-FuW5jhdGk-x-376" edge="1">
          <mxGeometry relative="1" as="geometry" />
        </mxCell>
        <mxCell id="Qnt6TcZh-FuW5jhdGk-x-374" value="&lt;span style=&quot;font-size: 20px;&quot;&gt;클래스 관리&lt;br&gt;(리스트)&lt;br&gt;&lt;/span&gt;" style="rounded=0;fillColor=#23445D;strokeColor=none;strokeWidth=2;fontFamily=Helvetica;html=1;gradientColor=none;fontColor=#FFFFFF;" parent="1" vertex="1">
          <mxGeometry x="590.0045578231293" y="2565" width="127" height="50" as="geometry" />
        </mxCell>
        <mxCell id="Qnt6TcZh-FuW5jhdGk-x-376" value="&lt;span style=&quot;font-size: 20px;&quot;&gt;클래스&amp;nbsp;&lt;br&gt;상세보기&lt;br&gt;&lt;/span&gt;" style="rounded=0;fillColor=#23445D;strokeColor=none;strokeWidth=2;fontFamily=Helvetica;html=1;gradientColor=none;fontColor=#FFFFFF;" parent="1" vertex="1">
          <mxGeometry x="1230.5145578231293" y="2565" width="127" height="50" as="geometry" />
        </mxCell>
        <mxCell id="Qnt6TcZh-FuW5jhdGk-x-384" value="" style="strokeColor=#FFFFFF;fillColor=#BAC8D3;fontSize=18;strokeWidth=2;fontFamily=Helvetica;html=1;opacity=90;rounded=0;" parent="1" vertex="1">
          <mxGeometry x="1485.01" y="2940" width="646.6666666666666" height="100" as="geometry" />
        </mxCell>
        <mxCell id="Qnt6TcZh-FuW5jhdGk-x-387" value="" style="strokeColor=#FFFFFF;fillColor=#BAC8D3;fontSize=18;strokeWidth=2;fontFamily=Helvetica;html=1;opacity=60;rounded=0;" parent="1" vertex="1">
          <mxGeometry x="1484.2499999999998" y="2840" width="646.6666666666666" height="100" as="geometry" />
        </mxCell>
        <mxCell id="Qnt6TcZh-FuW5jhdGk-x-410" style="edgeStyle=orthogonalEdgeStyle;rounded=0;orthogonalLoop=1;jettySize=auto;html=1;entryX=0;entryY=0.5;entryDx=0;entryDy=0;" parent="1" source="Qnt6TcZh-FuW5jhdGk-x-404" target="Qnt6TcZh-FuW5jhdGk-x-405" edge="1">
          <mxGeometry relative="1" as="geometry" />
        </mxCell>
        <mxCell id="Qnt6TcZh-FuW5jhdGk-x-411" style="edgeStyle=orthogonalEdgeStyle;rounded=0;orthogonalLoop=1;jettySize=auto;html=1;entryX=0;entryY=0.5;entryDx=0;entryDy=0;" parent="1" source="Qnt6TcZh-FuW5jhdGk-x-404" target="Qnt6TcZh-FuW5jhdGk-x-406" edge="1">
          <mxGeometry relative="1" as="geometry" />
        </mxCell>
        <mxCell id="Qnt6TcZh-FuW5jhdGk-x-412" style="edgeStyle=orthogonalEdgeStyle;rounded=0;orthogonalLoop=1;jettySize=auto;html=1;entryX=0;entryY=0.5;entryDx=0;entryDy=0;" parent="1" source="Qnt6TcZh-FuW5jhdGk-x-404" target="Qnt6TcZh-FuW5jhdGk-x-408" edge="1">
          <mxGeometry relative="1" as="geometry" />
        </mxCell>
        <mxCell id="Qnt6TcZh-FuW5jhdGk-x-413" style="edgeStyle=orthogonalEdgeStyle;rounded=0;orthogonalLoop=1;jettySize=auto;html=1;entryX=0;entryY=0.5;entryDx=0;entryDy=0;" parent="1" source="Qnt6TcZh-FuW5jhdGk-x-404" target="Qnt6TcZh-FuW5jhdGk-x-407" edge="1">
          <mxGeometry relative="1" as="geometry" />
        </mxCell>
        <mxCell id="Qnt6TcZh-FuW5jhdGk-x-404" value="&lt;span style=&quot;font-size: 20px;&quot;&gt;게시판&lt;br&gt;&lt;/span&gt;" style="rounded=0;fillColor=#23445D;strokeColor=none;strokeWidth=2;fontFamily=Helvetica;html=1;gradientColor=none;fontColor=#FFFFFF;" parent="1" vertex="1">
          <mxGeometry x="590.0045578231293" y="2665" width="127" height="50" as="geometry" />
        </mxCell>
        <mxCell id="Qnt6TcZh-FuW5jhdGk-x-405" value="&lt;span style=&quot;font-size: 20px;&quot;&gt;공지게시판&lt;br&gt;관리&lt;br&gt;&lt;/span&gt;" style="rounded=0;fillColor=#23445D;strokeColor=none;strokeWidth=2;fontFamily=Helvetica;html=1;gradientColor=none;fontColor=#FFFFFF;" parent="1" vertex="1">
          <mxGeometry x="1230.5145578231293" y="2665" width="127" height="50" as="geometry" />
        </mxCell>
        <mxCell id="Qnt6TcZh-FuW5jhdGk-x-406" value="&lt;span style=&quot;font-size: 20px;&quot;&gt;문의게시판&lt;br&gt;관리&lt;br&gt;&lt;/span&gt;" style="rounded=0;fillColor=#23445D;strokeColor=none;strokeWidth=2;fontFamily=Helvetica;html=1;gradientColor=none;fontColor=#FFFFFF;" parent="1" vertex="1">
          <mxGeometry x="1230.0045578231293" y="2765" width="127" height="50" as="geometry" />
        </mxCell>
        <mxCell id="Qnt6TcZh-FuW5jhdGk-x-407" value="&lt;span style=&quot;font-size: 20px;&quot;&gt;강사게시판&lt;br&gt;관리&lt;br&gt;&lt;/span&gt;" style="rounded=0;fillColor=#23445D;strokeColor=none;strokeWidth=2;fontFamily=Helvetica;html=1;gradientColor=none;fontColor=#FFFFFF;" parent="1" vertex="1">
          <mxGeometry x="1230.0045578231293" y="2965" width="127" height="50" as="geometry" />
        </mxCell>
        <mxCell id="Qnt6TcZh-FuW5jhdGk-x-408" value="&lt;span style=&quot;font-size: 20px;&quot;&gt;홍보게시판&lt;br&gt;관리&lt;br&gt;&lt;/span&gt;" style="rounded=0;fillColor=#23445D;strokeColor=none;strokeWidth=2;fontFamily=Helvetica;html=1;gradientColor=none;fontColor=#FFFFFF;" parent="1" vertex="1">
          <mxGeometry x="1230.0045578231293" y="2865" width="127" height="50" as="geometry" />
        </mxCell>
        <mxCell id="Qnt6TcZh-FuW5jhdGk-x-425" value="Lane 3.5" style="strokeColor=#BAC8D3;fillColor=#5d7f99;fontSize=19;strokeWidth=2;horizontal=0;fontFamily=Helvetica;html=1;labelBackgroundColor=none;fontColor=#FFFFFF;rounded=0;" parent="1" vertex="1">
          <mxGeometry x="152.85000000000005" y="2040" width="40" height="100" as="geometry" />
        </mxCell>
        <mxCell id="Qnt6TcZh-FuW5jhdGk-x-426" value="Lane 3.6" style="strokeColor=#BAC8D3;fillColor=#5d7f99;fontSize=19;strokeWidth=2;horizontal=0;fontFamily=Helvetica;html=1;labelBackgroundColor=none;fontColor=#FFFFFF;rounded=0;" parent="1" vertex="1">
          <mxGeometry x="151.17000000000004" y="2140" width="40" height="100" as="geometry" />
        </mxCell>
        <mxCell id="Qnt6TcZh-FuW5jhdGk-x-427" value="Lane 3.7" style="strokeColor=#BAC8D3;fillColor=#5d7f99;fontSize=19;strokeWidth=2;horizontal=0;fontFamily=Helvetica;html=1;labelBackgroundColor=none;fontColor=#FFFFFF;rounded=0;" parent="1" vertex="1">
          <mxGeometry x="152.85000000000005" y="2240" width="40" height="100" as="geometry" />
        </mxCell>
        <mxCell id="Qnt6TcZh-FuW5jhdGk-x-428" value="Lane 3.8" style="strokeColor=#BAC8D3;fillColor=#5d7f99;fontSize=19;strokeWidth=2;horizontal=0;fontFamily=Helvetica;html=1;labelBackgroundColor=none;fontColor=#FFFFFF;rounded=0;" parent="1" vertex="1">
          <mxGeometry x="149.67000000000004" y="2340" width="40" height="100" as="geometry" />
        </mxCell>
        <mxCell id="Qnt6TcZh-FuW5jhdGk-x-429" value="Lane 3.9" style="strokeColor=#BAC8D3;fillColor=#5d7f99;fontSize=19;strokeWidth=2;horizontal=0;fontFamily=Helvetica;html=1;labelBackgroundColor=none;fontColor=#FFFFFF;rounded=0;" parent="1" vertex="1">
          <mxGeometry x="152.85000000000005" y="2440" width="40" height="100" as="geometry" />
        </mxCell>
        <mxCell id="Qnt6TcZh-FuW5jhdGk-x-430" value="Lane 4.1" style="strokeColor=#BAC8D3;fillColor=#5d7f99;fontSize=19;strokeWidth=2;horizontal=0;fontFamily=Helvetica;html=1;labelBackgroundColor=none;fontColor=#FFFFFF;rounded=0;" parent="1" vertex="1">
          <mxGeometry x="151.17000000000004" y="2540" width="40" height="100" as="geometry" />
        </mxCell>
        <mxCell id="Qnt6TcZh-FuW5jhdGk-x-431" value="Lane 3.4" style="strokeColor=#BAC8D3;fillColor=#5d7f99;fontSize=19;strokeWidth=2;horizontal=0;fontFamily=Helvetica;html=1;labelBackgroundColor=none;fontColor=#FFFFFF;rounded=0;" parent="1" vertex="1">
          <mxGeometry x="152.85000000000005" y="2640" width="40" height="100" as="geometry" />
        </mxCell>
        <mxCell id="Qnt6TcZh-FuW5jhdGk-x-432" value="Lane 4.2" style="strokeColor=#BAC8D3;fillColor=#5d7f99;fontSize=19;strokeWidth=2;horizontal=0;fontFamily=Helvetica;html=1;labelBackgroundColor=none;fontColor=#FFFFFF;rounded=0;" parent="1" vertex="1">
          <mxGeometry x="149.67000000000004" y="2640" width="40" height="100" as="geometry" />
        </mxCell>
        <mxCell id="Qnt6TcZh-FuW5jhdGk-x-433" value="Lane 4.3" style="strokeColor=#BAC8D3;fillColor=#5d7f99;fontSize=19;strokeWidth=2;horizontal=0;fontFamily=Helvetica;html=1;labelBackgroundColor=none;fontColor=#FFFFFF;rounded=0;" parent="1" vertex="1">
          <mxGeometry x="152.85000000000005" y="2740" width="40" height="100" as="geometry" />
        </mxCell>
        <mxCell id="Qnt6TcZh-FuW5jhdGk-x-434" value="Lane 4.4" style="strokeColor=#BAC8D3;fillColor=#5d7f99;fontSize=19;strokeWidth=2;horizontal=0;fontFamily=Helvetica;html=1;labelBackgroundColor=none;fontColor=#FFFFFF;rounded=0;" parent="1" vertex="1">
          <mxGeometry x="149.67000000000004" y="2840" width="40" height="100" as="geometry" />
        </mxCell>
        <mxCell id="Qnt6TcZh-FuW5jhdGk-x-435" value="Lane 4.5" style="strokeColor=#BAC8D3;fillColor=#5d7f99;fontSize=19;strokeWidth=2;horizontal=0;fontFamily=Helvetica;html=1;labelBackgroundColor=none;fontColor=#FFFFFF;rounded=0;" parent="1" vertex="1">
          <mxGeometry x="151.17000000000004" y="2940" width="40" height="100" as="geometry" />
        </mxCell>
        <mxCell id="bdJDR1JgVnyC1k3MvacX-143" value="&lt;font style=&quot;&quot;&gt;&lt;span style=&quot;font-size: 20px;&quot;&gt;포인트적립&lt;/span&gt;&lt;br&gt;&lt;/font&gt;" style="rounded=0;fillColor=#23445D;strokeColor=none;strokeWidth=2;fontFamily=Helvetica;html=1;gradientColor=none;fontColor=#FFFFFF;" vertex="1" parent="1">
          <mxGeometry x="1720.0045578231293" y="465" width="127" height="50" as="geometry" />
        </mxCell>
      </root>
    </mxGraphModel>
  </diagram>
</mxfile>
